300.ufo
<glyph name="exclam" format="1">
  <advance width="554.600"/>
  <unicode hex="0021"/>
  <outline>
    <contour>
      <point x="248" y="415" type="line"/>
      <point x="307" y="415" type="line"/>
      <point x="358" y="1358" type="line"/>
      <point x="358" y="1467" type="line"/>
      <point x="191" y="1467" type="line"/>
      <point x="191" y="1358" type="line"/>
    </contour>
    <contour>
      <point x="279" y="-13" type="curve" smooth="yes"/>
      <point x="358" y="-13"/>
      <point x="390" y="42"/>
      <point x="390" y="96" type="curve" smooth="yes"/>
      <point x="390" y="148"/>
      <point x="358" y="204"/>
      <point x="279" y="204" type="curve" smooth="yes"/>
      <point x="201" y="204"/>
      <point x="170" y="148"/>
      <point x="170" y="96" type="curve" smooth="yes"/>
      <point x="170" y="43"/>
      <point x="201" y="-13"/>
    </contour>
  </outline>
</glyph>
<glyph name="quotedbl" format="1">
  <advance width="624.400"/>
  <unicode hex="0022"/>
  <outline>
    <contour>
      <point x="153" y="1014" type="line"/>
      <point x="228" y="1014" type="line"/>
      <point x="256" y="1475" type="line"/>
      <point x="120" y="1475" type="line"/>
    </contour>
    <contour>
      <point x="411" y="1014" type="line"/>
      <point x="486" y="1014" type="line"/>
      <point x="515" y="1475" type="line"/>
      <point x="378" y="1475" type="line"/>
    </contour>
  </outline>
</glyph>
<glyph name="numbersign" format="1">
  <advance width="1188.200"/>
  <unicode hex="0023"/>
  <outline>
    <contour>
      <point x="240" y="-22" type="line"/>
      <point x="349" y="-22" type="line"/>
      <point x="436" y="415" type="line"/>
      <point x="681" y="415" type="line"/>
      <point x="596" y="-22" type="line"/>
      <point x="705" y="-22" type="line"/>
      <point x="791" y="415" type="line"/>
      <point x="958" y="415" type="line"/>
      <point x="972" y="499" type="line"/>
      <point x="808" y="499" type="line"/>
      <point x="894" y="934" type="line"/>
      <point x="1046" y="934" type="line"/>
      <point x="1060" y="1018" type="line"/>
      <point x="911" y="1018" type="line"/>
      <point x="990" y="1419" type="line"/>
      <point x="880" y="1419" type="line"/>
      <point x="801" y="1018" type="line"/>
      <point x="555" y="1018" type="line"/>
      <point x="634" y="1419" type="line"/>
      <point x="524" y="1419" type="line"/>
      <point x="445" y="1018" type="line"/>
      <point x="285" y="1018" type="line"/>
      <point x="273" y="934" type="line"/>
      <point x="428" y="934" type="line"/>
      <point x="343" y="499" type="line"/>
      <point x="198" y="499" type="line"/>
      <point x="186" y="415" type="line"/>
      <point x="326" y="415" type="line"/>
    </contour>
    <contour>
      <point x="452" y="499" type="line"/>
      <point x="538" y="934" type="line"/>
      <point x="784" y="934" type="line"/>
      <point x="698" y="499" type="line"/>
    </contour>
  </outline>
</glyph>
<glyph name="dollar" format="1">
  <advance width="1205"/>
  <unicode hex="0024"/>
  <outline>
    <contour>
      <point x="522" y="60" type="line"/>
      <point x="522" y="-285" type="line"/>
      <point x="633" y="-285" type="line"/>
      <point x="646" y="60" type="line"/>
    </contour>
    <contour>
      <point x="607" y="1772" type="line"/>
      <point x="589" y="1441" type="line"/>
      <point x="717" y="1441" type="line"/>
      <point x="717" y="1772" type="line"/>
    </contour>
    <component base="S"/>
  </outline>
</glyph>
<glyph name="percent" format="1">
  <advance width="1796.400"/>
  <unicode hex="0025"/>
  <outline>
    <contour>
      <point x="1264" y="1443" type="line"/>
      <point x="434" y="0" type="line"/>
      <point x="558" y="0" type="line"/>
      <point x="1379" y="1443" type="line"/>
    </contour>
    <contour>
      <point x="78" y="1080" type="curve" smooth="yes"/>
      <point x="78" y="870"/>
      <point x="189" y="707"/>
      <point x="415" y="707" type="curve" smooth="yes"/>
      <point x="639" y="707"/>
      <point x="754" y="870"/>
      <point x="754" y="1080" type="curve" smooth="yes"/>
      <point x="754" y="1295"/>
      <point x="642" y="1453"/>
      <point x="415" y="1453" type="curve" smooth="yes"/>
      <point x="193" y="1453"/>
      <point x="78" y="1292"/>
    </contour>
    <contour>
      <point x="644" y="1082" type="curve" smooth="yes"/>
      <point x="644" y="921"/>
      <point x="576" y="795"/>
      <point x="416" y="795" type="curve" smooth="yes"/>
      <point x="257" y="795"/>
      <point x="187" y="916"/>
      <point x="187" y="1082" type="curve" smooth="yes"/>
      <point x="187" y="1242"/>
      <point x="256" y="1365"/>
      <point x="416" y="1365" type="curve" smooth="yes"/>
      <point x="575" y="1365"/>
      <point x="644" y="1248"/>
    </contour>
    <contour>
      <point x="1060" y="360" type="curve" smooth="yes"/>
      <point x="1060" y="150"/>
      <point x="1171" y="-13"/>
      <point x="1397" y="-13" type="curve" smooth="yes"/>
      <point x="1621" y="-13"/>
      <point x="1736" y="150"/>
      <point x="1736" y="360" type="curve" smooth="yes"/>
      <point x="1736" y="575"/>
      <point x="1624" y="733"/>
      <point x="1397" y="733" type="curve" smooth="yes"/>
      <point x="1175" y="733"/>
      <point x="1060" y="572"/>
    </contour>
    <contour>
      <point x="1627" y="362" type="curve" smooth="yes"/>
      <point x="1627" y="201"/>
      <point x="1559" y="75"/>
      <point x="1399" y="75" type="curve" smooth="yes"/>
      <point x="1240" y="75"/>
      <point x="1170" y="196"/>
      <point x="1170" y="362" type="curve" smooth="yes"/>
      <point x="1170" y="522"/>
      <point x="1239" y="645"/>
      <point x="1399" y="645" type="curve" smooth="yes"/>
      <point x="1558" y="645"/>
      <point x="1627" y="528"/>
    </contour>
  </outline>
</glyph>
<glyph name="ampersand" format="1">
  <advance width="1449.200"/>
  <unicode hex="0026"/>
  <outline>
    <contour>
      <point x="450" y="1462"/>
      <point x="296" y="1336"/>
      <point x="296" y="1152" type="curve" smooth="yes"/>
      <point x="296" y="1025"/>
      <point x="358" y="916"/>
      <point x="470" y="798" type="curve"/>
      <point x="314" y="706"/>
      <point x="173" y="580"/>
      <point x="173" y="369" type="curve" smooth="yes"/>
      <point x="173" y="135"/>
      <point x="340" y="-19"/>
      <point x="672" y="-19" type="curve" smooth="yes"/>
      <point x="882" y="-19"/>
      <point x="952" y="18"/>
      <point x="1079" y="113" type="curve"/>
      <point x="1204" y="-19" type="line"/>
      <point x="1332" y="36" type="line"/>
      <point x="1169" y="203" type="line"/>
      <point x="1238" y="273"/>
      <point x="1323" y="405"/>
      <point x="1359" y="490" type="curve"/>
      <point x="1254" y="560" type="line"/>
      <point x="1219" y="477"/>
      <point x="1144" y="351"/>
      <point x="1089" y="295" type="curve"/>
      <point x="659" y="773" type="line"/>
      <point x="858" y="864"/>
      <point x="1016" y="992"/>
      <point x="1016" y="1159" type="curve" smooth="yes"/>
      <point x="1016" y="1352"/>
      <point x="882" y="1462"/>
      <point x="676" y="1462" type="curve" smooth="yes"/>
    </contour>
    <contour>
      <point x="998" y="208" type="line"/>
      <point x="902" y="131"/>
      <point x="834" y="99"/>
      <point x="683" y="99" type="curve" smooth="yes"/>
      <point x="451" y="99"/>
      <point x="320" y="204"/>
      <point x="320" y="377" type="curve" smooth="yes"/>
      <point x="320" y="523"/>
      <point x="413" y="635"/>
      <point x="547" y="712" type="curve"/>
    </contour>
    <contour>
      <point x="814" y="1350"/>
      <point x="880" y="1283"/>
      <point x="880" y="1162" type="curve" smooth="yes"/>
      <point x="880" y="1033"/>
      <point x="736" y="927"/>
      <point x="587" y="857" type="curve"/>
      <point x="467" y="970"/>
      <point x="430" y="1061"/>
      <point x="430" y="1161" type="curve" smooth="yes"/>
      <point x="430" y="1279"/>
      <point x="548" y="1350"/>
      <point x="678" y="1350" type="curve" smooth="yes"/>
    </contour>
  </outline>
</glyph>
<glyph name="quotesingle" format="1">
  <advance width="317.200"/>
  <unicode hex="0027"/>
  <outline>
    <contour>
      <point x="113" y="961" type="line"/>
      <point x="204" y="961" type="line"/>
      <point x="220" y="1441" type="line"/>
      <point x="98" y="1441" type="line"/>
    </contour>
  </outline>
</glyph>
<glyph name="parenleft" format="1">
  <advance width="700.200"/>
  <unicode hex="0028"/>
  <outline>
    <contour>
      <point x="455" y="-241" type="curve"/>
      <point x="596" y="-241" type="line"/>
      <point x="407" y="54"/>
      <point x="345" y="376"/>
      <point x="345" y="695" type="curve" smooth="yes"/>
      <point x="345" y="992"/>
      <point x="410" y="1263"/>
      <point x="597" y="1552" type="curve"/>
      <point x="453" y="1552" type="line"/>
      <point x="287" y="1308"/>
      <point x="196" y="1010"/>
      <point x="196" y="690" type="curve" smooth="yes"/>
      <point x="196" y="335"/>
      <point x="291" y="-12"/>
    </contour>
  </outline>
</glyph>
<glyph name="parenright" format="1">
  <advance width="702.400"/>
  <unicode hex="0029"/>
  <outline>
    <contour>
      <point x="117" y="-241" type="curve"/>
      <point x="259" y="-241" type="line"/>
      <point x="420" y="-18"/>
      <point x="516" y="338"/>
      <point x="516" y="694" type="curve" smooth="yes"/>
      <point x="516" y="1013"/>
      <point x="429" y="1302"/>
      <point x="260" y="1552" type="curve"/>
      <point x="116" y="1552" type="line"/>
      <point x="311" y="1246"/>
      <point x="367" y="991"/>
      <point x="367" y="697" type="curve" smooth="yes"/>
      <point x="367" y="375"/>
      <point x="298" y="37"/>
    </contour>
  </outline>
</glyph>
<glyph name="asterisk" format="1">
  <advance width="1180.400"/>
  <unicode hex="002A"/>
  <outline>
    <contour>
      <point x="391" y="568" type="line"/>
      <point x="584" y="935" type="line"/>
      <point x="790" y="569" type="line"/>
      <point x="859" y="612"/>
      <point x="848" y="607"/>
      <point x="916" y="651" type="curve"/>
      <point x="804" y="794"/>
      <point x="704" y="931"/>
      <point x="664" y="986" type="curve"/>
      <point x="1032" y="1070" type="line"/>
      <point x="991" y="1215" type="line"/>
      <point x="631" y="1064" type="line"/>
      <point x="668" y="1474" type="line"/>
      <point x="511" y="1474" type="line"/>
      <point x="547" y="1064" type="line"/>
      <point x="189" y="1215" type="line"/>
      <point x="149" y="1070" type="line"/>
      <point x="511" y="986" type="line"/>
      <point x="265" y="651" type="line"/>
    </contour>
  </outline>
</glyph>
<glyph name="plus" format="1">
  <advance width="1113.400"/>
  <unicode hex="002B"/>
  <outline>
    <contour>
      <point x="510" y="1072" type="line"/>
      <point x="510" y="679" type="line"/>
      <point x="131" y="679" type="line"/>
      <point x="131" y="578" type="line"/>
      <point x="510" y="578" type="line"/>
      <point x="510" y="177" type="line"/>
      <point x="624" y="177" type="line"/>
      <point x="624" y="578" type="line"/>
      <point x="997" y="578" type="line"/>
      <point x="997" y="679" type="line"/>
      <point x="624" y="679" type="line"/>
      <point x="624" y="1072" type="line"/>
    </contour>
  </outline>
</glyph>
<glyph name="comma" format="1">
  <advance width="474.400"/>
  <unicode hex="002C"/>
  <outline>
    <contour>
      <point x="141" y="-277" type="curve"/>
      <point x="225" y="-277" type="line"/>
      <point x="225" y="-277"/>
      <point x="327" y="146"/>
      <point x="327" y="178" type="curve" smooth="yes"/>
      <point x="328" y="215" type="line"/>
      <point x="174" y="215" type="line"/>
      <point x="174" y="132"/>
      <point x="141" y="-277"/>
    </contour>
  </outline>
</glyph>
<glyph name="hyphen" format="1">
  <advance width="736.600"/>
  <unicode hex="002D"/>
  <outline>
    <contour>
      <point x="126" y="498" type="line"/>
      <point x="593" y="498" type="line"/>
      <point x="593" y="612" type="line"/>
      <point x="126" y="612" type="line"/>
    </contour>
    <contour>
      <point x="358" y="552" type="move" name="_mid"/>
    </contour>
  </outline>
</glyph>
<glyph name="period" format="1">
  <advance width="480.200"/>
  <unicode hex="002E"/>
  <outline>
    <contour>
      <point x="250" y="-13" type="curve" smooth="yes"/>
      <point x="322" y="-13"/>
      <point x="351" y="39"/>
      <point x="351" y="89" type="curve" smooth="yes"/>
      <point x="351" y="140"/>
      <point x="322" y="192"/>
      <point x="250" y="192" type="curve" smooth="yes"/>
      <point x="177" y="192"/>
      <point x="148" y="140"/>
      <point x="148" y="89" type="curve" smooth="yes"/>
      <point x="148" y="40"/>
      <point x="178" y="-13"/>
    </contour>
  </outline>
</glyph>
<glyph name="slash" format="1">
  <advance width="974.600"/>
  <unicode hex="002F"/>
  <outline>
    <contour>
      <point x="105" y="-212" type="line"/>
      <point x="209" y="-212" type="line"/>
      <point x="893" y="1409" type="line"/>
      <point x="787" y="1409" type="line"/>
    </contour>
  </outline>
</glyph>
<glyph name="zero" format="1">
  <advance width="1225.800"/>
  <unicode hex="0030"/>
  <outline>
    <contour>
      <point x="624" y="93" type="curve" smooth="yes"/>
      <point x="421" y="93"/>
      <point x="285" y="282"/>
      <point x="285" y="720" type="curve"/>
      <point x="284" y="1135"/>
      <point x="420" y="1334"/>
      <point x="624" y="1334" type="curve" smooth="yes"/>
      <point x="827" y="1334"/>
      <point x="953" y="1167"/>
      <point x="953" y="721" type="curve" smooth="yes"/>
      <point x="953" y="282"/>
      <point x="827" y="93"/>
    </contour>
    <contour>
      <point x="625" y="-30" type="curve" smooth="yes"/>
      <point x="961" y="-30"/>
      <point x="1103" y="274"/>
      <point x="1103" y="715" type="curve" smooth="yes"/>
      <point x="1103" y="1182"/>
      <point x="943" y="1459"/>
      <point x="625" y="1459" type="curve" smooth="yes"/>
      <point x="306" y="1459"/>
      <point x="136" y="1181"/>
      <point x="136" y="715" type="curve" smooth="yes"/>
      <point x="136" y="274"/>
      <point x="288" y="-30"/>
    </contour>
  </outline>
</glyph>
<glyph name="one" format="1">
  <advance width="1200"/>
  <unicode hex="0031"/>
  <outline>
    <contour>
      <point x="237" y="0" type="line"/>
      <point x="1065" y="0" type="line"/>
      <point x="1065" y="117" type="line"/>
      <point x="689" y="117" type="line"/>
      <point x="746" y="60" type="line"/>
      <point x="746" y="1443" type="line"/>
      <point x="604" y="1443" type="line"/>
      <point x="529" y="1391"/>
      <point x="349" y="1337"/>
      <point x="271" y="1322" type="curve"/>
      <point x="271" y="1200" type="line"/>
      <point x="362" y="1212"/>
      <point x="557" y="1269"/>
      <point x="635" y="1331" type="curve"/>
      <point x="595" y="1352" type="line"/>
      <point x="595" y="61" type="line"/>
      <point x="650" y="117" type="line"/>
      <point x="237" y="117" type="line"/>
    </contour>
  </outline>
</glyph>
<glyph name="two" format="1">
  <advance width="1200"/>
  <unicode hex="0032"/>
  <outline>
    <contour>
      <point x="210" y="1238" type="line"/>
      <point x="308" y="1295"/>
      <point x="434" y="1337"/>
      <point x="553" y="1337" type="curve" smooth="yes"/>
      <point x="676" y="1337"/>
      <point x="864" y="1289"/>
      <point x="864" y="1056" type="curve" smooth="yes"/>
      <point x="864" y="881"/>
      <point x="785" y="805"/>
      <point x="657" y="672" type="curve" smooth="yes"/>
      <point x="130" y="119" type="line"/>
      <point x="158" y="0" type="line"/>
      <point x="1011" y="0" type="line"/>
      <point x="1019" y="117" type="line"/>
      <point x="238" y="117" type="line"/>
      <point x="256" y="64" type="line"/>
      <point x="756" y="580" type="line" smooth="yes"/>
      <point x="943" y="774"/>
      <point x="1011" y="863"/>
      <point x="1011" y="1072" type="curve" smooth="yes"/>
      <point x="1011" y="1378"/>
      <point x="724" y="1462"/>
      <point x="560" y="1462" type="curve" smooth="yes"/>
      <point x="402" y="1462"/>
      <point x="244" y="1407"/>
      <point x="155" y="1348" type="curve"/>
      <point x="198" y="1238" type="line"/>
    </contour>
  </outline>
</glyph>
<glyph name="three" format="1">
  <advance width="1200"/>
  <unicode hex="0033"/>
  <outline>
    <contour>
      <point x="570" y="-20" type="curve" smooth="yes"/>
      <point x="871" y="-20"/>
      <point x="1061" y="133"/>
      <point x="1061" y="391" type="curve" smooth="yes"/>
      <point x="1061" y="607"/>
      <point x="929" y="731"/>
      <point x="742" y="766" type="curve"/>
      <point x="915" y="806"/>
      <point x="1024" y="903"/>
      <point x="1024" y="1103" type="curve" smooth="yes"/>
      <point x="1024" y="1333"/>
      <point x="816" y="1462"/>
      <point x="567" y="1462" type="curve" smooth="yes"/>
      <point x="418" y="1462"/>
      <point x="280" y="1423"/>
      <point x="163" y="1351" type="curve"/>
      <point x="212" y="1243" type="line"/>
      <point x="310" y="1305"/>
      <point x="442" y="1342"/>
      <point x="564" y="1342" type="curve" smooth="yes"/>
      <point x="738" y="1342"/>
      <point x="880" y="1263"/>
      <point x="880" y="1095" type="curve" smooth="yes"/>
      <point x="880" y="864"/>
      <point x="661" y="832"/>
      <point x="455" y="825" type="curve" smooth="yes"/>
      <point x="414" y="825" type="line"/>
      <point x="414" y="702" type="line"/>
      <point x="453" y="702" type="line" smooth="yes"/>
      <point x="707" y="697"/>
      <point x="915" y="654"/>
      <point x="915" y="389" type="curve" smooth="yes"/>
      <point x="915" y="190"/>
      <point x="775" y="102"/>
      <point x="564" y="102" type="curve" smooth="yes"/>
      <point x="422" y="102"/>
      <point x="296" y="149"/>
      <point x="223" y="194" type="curve"/>
      <point x="171" y="89" type="line"/>
      <point x="243" y="44"/>
      <point x="383" y="-20"/>
    </contour>
  </outline>
</glyph>
<glyph name="four" format="1">
  <advance width="1200"/>
  <unicode hex="0034"/>
  <outline>
    <contour>
      <point x="789" y="0" type="line"/>
      <point x="931" y="0" type="line"/>
      <point x="931" y="376" type="line"/>
      <point x="1101" y="376" type="line"/>
      <point x="1112" y="492" type="line"/>
      <point x="931" y="492" type="line"/>
      <point x="931" y="1443" type="line"/>
      <point x="785" y="1443" type="line"/>
      <point x="118" y="513" type="line"/>
      <point x="118" y="376" type="line"/>
      <point x="789" y="376" type="line"/>
    </contour>
    <contour>
      <point x="268" y="493" type="line"/>
      <point x="789" y="1250" type="line"/>
      <point x="789" y="493" type="line"/>
    </contour>
  </outline>
</glyph>
<glyph name="five" format="1">
  <advance width="1200"/>
  <unicode hex="0035"/>
  <outline>
    <contour>
      <point x="561" y="-20" type="curve" smooth="yes"/>
      <point x="844" y="-20"/>
      <point x="1074" y="146"/>
      <point x="1074" y="460" type="curve" smooth="yes"/>
      <point x="1074" y="699"/>
      <point x="921" y="899"/>
      <point x="632" y="899" type="curve" smooth="yes"/>
      <point x="524" y="899"/>
      <point x="440" y="872"/>
      <point x="358" y="817" type="curve"/>
      <point x="394" y="1324" type="line"/>
      <point x="999" y="1324" type="line"/>
      <point x="1011" y="1443" type="line"/>
      <point x="268" y="1443" type="line"/>
      <point x="221" y="686" type="line"/>
      <point x="346" y="671" type="line"/>
      <point x="408" y="738"/>
      <point x="512" y="779"/>
      <point x="614" y="779" type="curve" smooth="yes"/>
      <point x="836" y="779"/>
      <point x="921" y="631"/>
      <point x="921" y="457" type="curve" smooth="yes"/>
      <point x="921" y="225"/>
      <point x="756" y="101"/>
      <point x="545" y="101" type="curve" smooth="yes"/>
      <point x="425" y="101"/>
      <point x="300" y="149"/>
      <point x="208" y="205" type="curve"/>
      <point x="157" y="97" type="line"/>
      <point x="260" y="33"/>
      <point x="412" y="-20"/>
    </contour>
  </outline>
</glyph>
<glyph name="six" format="1">
  <advance width="1200"/>
  <unicode hex="0036"/>
  <outline>
    <contour>
      <point x="625" y="-19" type="curve" smooth="yes"/>
      <point x="911" y="-19"/>
      <point x="1087" y="180"/>
      <point x="1087" y="428" type="curve" smooth="yes"/>
      <point x="1087" y="686"/>
      <point x="881" y="856"/>
      <point x="654" y="856" type="curve" smooth="yes"/>
      <point x="397" y="856"/>
      <point x="271" y="642"/>
      <point x="259" y="621" type="curve"/>
      <point x="282" y="601" type="line"/>
      <point x="282" y="601"/>
      <point x="437" y="801"/>
      <point x="535" y="946" type="curve" smooth="yes"/>
      <point x="878" y="1443" type="line"/>
      <point x="708" y="1443" type="line"/>
      <point x="387" y="976" type="line" smooth="yes"/>
      <point x="252" y="780"/>
      <point x="164" y="648"/>
      <point x="164" y="431" type="curve" smooth="yes"/>
      <point x="164" y="199"/>
      <point x="323" y="-19"/>
    </contour>
    <contour>
      <point x="621" y="99" type="curve" smooth="yes"/>
      <point x="411" y="99"/>
      <point x="307" y="249"/>
      <point x="307" y="420" type="curve" smooth="yes"/>
      <point x="307" y="670"/>
      <point x="504" y="737"/>
      <point x="628" y="737" type="curve" smooth="yes"/>
      <point x="829" y="737"/>
      <point x="943" y="607"/>
      <point x="943" y="427" type="curve" smooth="yes"/>
      <point x="943" y="254"/>
      <point x="830" y="99"/>
    </contour>
  </outline>
</glyph>
<glyph name="seven" format="1">
  <advance width="1200"/>
  <unicode hex="0037"/>
  <outline>
    <contour>
      <point x="366" y="1" type="line"/>
      <point x="513" y="1" type="line"/>
      <point x="1035" y="1334" type="line"/>
      <point x="1035" y="1443" type="line"/>
      <point x="193" y="1443" type="line"/>
      <point x="215" y="1322" type="line"/>
      <point x="881" y="1322" type="line"/>
    </contour>
  </outline>
</glyph>
<glyph name="eight" format="1">
  <advance width="1200"/>
  <unicode hex="0038"/>
  <outline>
    <contour>
      <point x="600" y="-19" type="curve" smooth="yes"/>
      <point x="858" y="-19"/>
      <point x="1067" y="105"/>
      <point x="1067" y="356" type="curve" smooth="yes"/>
      <point x="1067" y="544"/>
      <point x="945" y="698"/>
      <point x="754" y="756" type="curve"/>
      <point x="921" y="812"/>
      <point x="1034" y="925"/>
      <point x="1034" y="1105" type="curve" smooth="yes"/>
      <point x="1034" y="1330"/>
      <point x="857" y="1462"/>
      <point x="601" y="1462" type="curve" smooth="yes"/>
      <point x="344" y="1462"/>
      <point x="164" y="1330"/>
      <point x="164" y="1105" type="curve" smooth="yes"/>
      <point x="164" y="926"/>
      <point x="288" y="802"/>
      <point x="448" y="753" type="curve"/>
      <point x="248" y="687"/>
      <point x="133" y="561"/>
      <point x="133" y="357" type="curve" smooth="yes"/>
      <point x="133" y="104"/>
      <point x="345" y="-19"/>
    </contour>
    <contour>
      <point x="601" y="98" type="curve" smooth="yes"/>
      <point x="386" y="98"/>
      <point x="272" y="195"/>
      <point x="272" y="371" type="curve" smooth="yes"/>
      <point x="272" y="551"/>
      <point x="415" y="654"/>
      <point x="601" y="693" type="curve"/>
      <point x="789" y="654"/>
      <point x="926" y="544"/>
      <point x="926" y="371" type="curve" smooth="yes"/>
      <point x="926" y="187"/>
      <point x="823" y="98"/>
    </contour>
    <contour>
      <point x="601" y="804" type="curve"/>
      <point x="410" y="846"/>
      <point x="311" y="951"/>
      <point x="311" y="1110" type="curve" smooth="yes"/>
      <point x="311" y="1257"/>
      <point x="428" y="1348"/>
      <point x="601" y="1348" type="curve" smooth="yes"/>
      <point x="775" y="1348"/>
      <point x="888" y="1257"/>
      <point x="888" y="1110" type="curve" smooth="yes"/>
      <point x="888" y="951"/>
      <point x="794" y="846"/>
    </contour>
  </outline>
</glyph>
<glyph name="nine" format="1">
  <advance width="1200"/>
  <unicode hex="0039"/>
  <outline>
    <contour>
      <point x="314" y="0" type="line"/>
      <point x="491" y="0" type="line"/>
      <point x="491" y="0"/>
      <point x="838" y="464"/>
      <point x="842" y="470" type="curve" smooth="yes"/>
      <point x="982" y="659"/>
      <point x="1082" y="796"/>
      <point x="1082" y="1012" type="curve" smooth="yes"/>
      <point x="1082" y="1244"/>
      <point x="923" y="1462"/>
      <point x="621" y="1462" type="curve" smooth="yes"/>
      <point x="334" y="1462"/>
      <point x="158" y="1263"/>
      <point x="158" y="1015" type="curve" smooth="yes"/>
      <point x="158" y="755"/>
      <point x="365" y="586"/>
      <point x="591" y="586" type="curve" smooth="yes"/>
      <point x="845" y="586"/>
      <point x="976" y="798"/>
      <point x="987" y="821" type="curve"/>
      <point x="963" y="839" type="line"/>
      <point x="963" y="839"/>
      <point x="800" y="642"/>
      <point x="695" y="502" type="curve" smooth="yes"/>
    </contour>
    <contour>
      <point x="616" y="705" type="curve" smooth="yes"/>
      <point x="416" y="705"/>
      <point x="302" y="836"/>
      <point x="302" y="1016" type="curve" smooth="yes"/>
      <point x="302" y="1190"/>
      <point x="415" y="1343"/>
      <point x="624" y="1343" type="curve" smooth="yes"/>
      <point x="834" y="1343"/>
      <point x="939" y="1193"/>
      <point x="939" y="1022" type="curve" smooth="yes"/>
      <point x="939" y="772"/>
      <point x="740" y="705"/>
    </contour>
  </outline>
</glyph>
<glyph name="colon" format="1">
  <advance width="522"/>
  <unicode hex="003A"/>
  <outline>
    <contour>
      <point x="175" y="0" type="line"/>
      <point x="344" y="0" type="line"/>
      <point x="344" y="193" type="line"/>
      <point x="175" y="193" type="line"/>
    </contour>
    <contour>
      <point x="175" y="862" type="line"/>
      <point x="344" y="862" type="line"/>
      <point x="344" y="1057" type="line"/>
      <point x="175" y="1057" type="line"/>
    </contour>
  </outline>
</glyph>
<glyph name="semicolon" format="1">
  <advance width="511.200"/>
  <unicode hex="003B"/>
  <outline>
    <contour>
      <point x="145" y="-299" type="line"/>
      <point x="230" y="-299" type="line"/>
      <point x="351" y="166" type="line"/>
      <point x="199" y="166" type="line"/>
    </contour>
    <contour>
      <point x="178" y="862" type="line"/>
      <point x="347" y="862" type="line"/>
      <point x="347" y="1057" type="line"/>
      <point x="178" y="1057" type="line"/>
    </contour>
  </outline>
</glyph>
<glyph name="less" format="1">
  <advance width="1187.400"/>
  <unicode hex="003C"/>
  <outline>
    <contour>
      <point x="1040" y="129" type="line"/>
      <point x="1041" y="257" type="line"/>
      <point x="259" y="619" type="line"/>
      <point x="1043" y="1004" type="line"/>
      <point x="1043" y="1134" type="line"/>
      <point x="111" y="656" type="line"/>
      <point x="111" y="575" type="line"/>
    </contour>
  </outline>
</glyph>
<glyph name="equal" format="1">
  <advance width="992"/>
  <unicode hex="003D"/>
  <outline>
    <contour>
      <point x="187" y="932" type="line"/>
      <point x="187" y="818" type="line"/>
      <point x="839" y="818" type="line"/>
      <point x="839" y="932" type="line"/>
    </contour>
    <contour>
      <point x="187" y="632" type="line"/>
      <point x="187" y="518" type="line"/>
      <point x="839" y="518" type="line"/>
      <point x="839" y="632" type="line"/>
    </contour>
  </outline>
</glyph>
<glyph name="greater" format="1">
  <advance width="1197.800"/>
  <unicode hex="003E"/>
  <outline>
    <contour>
      <point x="148" y="1011" type="line"/>
      <point x="921" y="619" type="line"/>
      <point x="146" y="265" type="line"/>
      <point x="146" y="135" type="line"/>
      <point x="1078" y="573" type="line"/>
      <point x="1078" y="654" type="line"/>
      <point x="148" y="1141" type="line"/>
    </contour>
  </outline>
</glyph>
<glyph name="question" format="1">
  <advance width="924.200"/>
  <unicode hex="003F"/>
  <outline>
    <contour>
      <point x="360" y="409" type="curve"/>
      <point x="430" y="409" type="line"/>
      <point x="544" y="756"/>
      <point x="777" y="906"/>
      <point x="777" y="1181" type="curve" smooth="yes"/>
      <point x="777" y="1374"/>
      <point x="623" y="1487"/>
      <point x="441" y="1487" type="curve" smooth="yes"/>
      <point x="310" y="1487"/>
      <point x="207" y="1448"/>
      <point x="130" y="1396" type="curve"/>
      <point x="160" y="1280" type="line"/>
      <point x="204" y="1307"/>
      <point x="310" y="1366"/>
      <point x="423" y="1366" type="curve" smooth="yes"/>
      <point x="558" y="1366"/>
      <point x="641" y="1302"/>
      <point x="641" y="1165" type="curve" smooth="yes"/>
      <point x="641" y="928"/>
      <point x="367" y="652"/>
    </contour>
    <contour>
      <point x="399" y="-13" type="curve" smooth="yes"/>
      <point x="478" y="-13"/>
      <point x="510" y="42"/>
      <point x="510" y="96" type="curve" smooth="yes"/>
      <point x="510" y="148"/>
      <point x="478" y="204"/>
      <point x="399" y="204" type="curve" smooth="yes"/>
      <point x="321" y="204"/>
      <point x="291" y="148"/>
      <point x="291" y="96" type="curve" smooth="yes"/>
      <point x="291" y="43"/>
      <point x="322" y="-13"/>
    </contour>
  </outline>
</glyph>
<glyph name="at" format="1">
  <advance width="2014.200"/>
  <unicode hex="0040"/>
  <outline>
    <contour>
      <point x="540" y="1488"/>
      <point x="174" y="1113"/>
      <point x="174" y="605" type="curve" smooth="yes"/>
      <point x="174" y="96"/>
      <point x="494" y="-207"/>
      <point x="983" y="-207" type="curve" smooth="yes"/>
      <point x="1182" y="-207"/>
      <point x="1367" y="-161"/>
      <point x="1500" y="-71" type="curve"/>
      <point x="1460" y="22" type="line"/>
      <point x="1323" y="-57"/>
      <point x="1158" y="-101"/>
      <point x="988" y="-101" type="curve" smooth="yes"/>
      <point x="577" y="-101"/>
      <point x="300" y="161"/>
      <point x="300" y="605" type="curve" smooth="yes"/>
      <point x="300" y="1050"/>
      <point x="613" y="1378"/>
      <point x="1050" y="1378" type="curve" smooth="yes"/>
      <point x="1452" y="1378"/>
      <point x="1722" y="1118"/>
      <point x="1722" y="756" type="curve" smooth="yes"/>
      <point x="1722" y="502"/>
      <point x="1608" y="313"/>
      <point x="1453" y="313" type="curve" smooth="yes"/>
      <point x="1357" y="313"/>
      <point x="1309" y="393"/>
      <point x="1309" y="491" type="curve" smooth="yes"/>
      <point x="1309" y="619"/>
      <point x="1347" y="810"/>
      <point x="1376" y="1019" type="curve"/>
      <point x="1287" y="1053"/>
      <point x="1167" y="1081"/>
      <point x="1067" y="1081" type="curve" smooth="yes"/>
      <point x="779" y="1081"/>
      <point x="618" y="843"/>
      <point x="618" y="571" type="curve" smooth="yes"/>
      <point x="618" y="351"/>
      <point x="728" y="211"/>
      <point x="918" y="211" type="curve" smooth="yes"/>
      <point x="1097" y="211"/>
      <point x="1206" y="388"/>
      <point x="1252" y="560" type="curve"/>
      <point x="1200" y="560" type="line"/>
      <point x="1212" y="330"/>
      <point x="1289" y="223"/>
      <point x="1455" y="223" type="curve" smooth="yes"/>
      <point x="1632" y="223"/>
      <point x="1836" y="402"/>
      <point x="1836" y="749" type="curve" smooth="yes"/>
      <point x="1836" y="1205"/>
      <point x="1494" y="1488"/>
      <point x="1054" y="1488" type="curve" smooth="yes"/>
    </contour>
    <contour>
      <point x="1232" y="977"/>
      <point x="1192" y="741"/>
      <point x="1185" y="692" type="curve" smooth="yes"/>
      <point x="1157" y="487"/>
      <point x="1092" y="313"/>
      <point x="933" y="313" type="curve" smooth="yes"/>
      <point x="817" y="313"/>
      <point x="746" y="391"/>
      <point x="746" y="571" type="curve" smooth="yes"/>
      <point x="746" y="782"/>
      <point x="868" y="984"/>
      <point x="1067" y="984" type="curve" smooth="yes"/>
      <point x="1119" y="984"/>
      <point x="1256" y="959"/>
      <point x="1296" y="945" type="curve"/>
      <point x="1237" y="1027" type="line"/>
    </contour>
  </outline>
</glyph>
<glyph name="A" format="1">
  <advance width="1336.600"/>
  <unicode hex="0041"/>
  <outline>
    <contour>
      <point x="588" y="1456" type="line"/>
      <point x="49" y="0" type="line"/>
      <point x="209" y="0" type="line"/>
      <point x="403" y="528" type="line"/>
      <point x="339" y="481" type="line"/>
      <point x="1008" y="481" type="line"/>
      <point x="941" y="526" type="line"/>
      <point x="1133" y="0" type="line"/>
      <point x="1288" y="0" type="line"/>
      <point x="749" y="1456" type="line"/>
    </contour>
    <contour>
      <point x="646" y="1364" type="line"/>
      <point x="937" y="545" type="line"/>
      <point x="976" y="592" type="line"/>
      <point x="373" y="592" type="line"/>
      <point x="408" y="545" type="line"/>
      <point x="693" y="1363" type="line"/>
    </contour>
    <contour>
      <point x="668" y="0" type="move" name="bot"/>
    </contour>
    <contour>
      <point x="1213" y="0" type="move" name="ogonek"/>
    </contour>
    <contour>
      <point x="668" y="1456" type="move" name="top"/>
    </contour>
  </outline>
</glyph>
<glyph name="B" format="1">
  <advance width="1371.800"/>
  <unicode hex="0042"/>
  <outline>
    <contour>
      <point x="581" y="-17" type="curve" smooth="yes"/>
      <point x="1128" y="-17"/>
      <point x="1257" y="131"/>
      <point x="1257" y="409" type="curve" smooth="yes"/>
      <point x="1257" y="631"/>
      <point x="1112" y="749"/>
      <point x="872" y="785" type="curve"/>
      <point x="872" y="742" type="line"/>
      <point x="1131" y="803"/>
      <point x="1198" y="926"/>
      <point x="1198" y="1100" type="curve" smooth="yes"/>
      <point x="1198" y="1352"/>
      <point x="1059" y="1469"/>
      <point x="547" y="1469" type="curve" smooth="yes"/>
      <point x="449" y="1469"/>
      <point x="337" y="1465"/>
      <point x="209" y="1456" type="curve"/>
      <point x="209" y="0" type="line"/>
      <point x="350" y="-11"/>
      <point x="474" y="-17"/>
    </contour>
    <contour>
      <point x="367" y="70" type="line"/>
      <point x="367" y="752" type="line"/>
      <point x="317" y="707" type="line"/>
      <point x="663" y="707" type="line" smooth="yes"/>
      <point x="958" y="707"/>
      <point x="1099" y="636"/>
      <point x="1099" y="412" type="curve" smooth="yes"/>
      <point x="1099" y="199"/>
      <point x="999" y="107"/>
      <point x="621" y="107" type="curve" smooth="yes"/>
      <point x="535" y="107"/>
      <point x="435" y="112"/>
      <point x="318" y="121" type="curve"/>
    </contour>
    <contour>
      <point x="367" y="782" type="line"/>
      <point x="367" y="1386" type="line"/>
      <point x="318" y="1337" type="line"/>
      <point x="428" y="1343"/>
      <point x="523" y="1346"/>
      <point x="603" y="1346" type="curve" smooth="yes"/>
      <point x="960" y="1346"/>
      <point x="1048" y="1281"/>
      <point x="1048" y="1082" type="curve" smooth="yes"/>
      <point x="1048" y="874"/>
      <point x="918" y="822"/>
      <point x="723" y="822" type="curve" smooth="yes"/>
      <point x="316" y="822" type="line"/>
    </contour>
    <contour>
      <point x="686" y="1443" type="move" name="top"/>
    </contour>
  </outline>
</glyph>
<glyph name="C" format="1">
  <advance width="1309.400"/>
  <unicode hex="0043"/>
  <outline>
    <contour>
      <point x="389" y="1476"/>
      <point x="139" y="1187"/>
      <point x="139" y="728" type="curve" smooth="yes"/>
      <point x="139" y="269"/>
      <point x="389" y="-20"/>
      <point x="788" y="-20" type="curve" smooth="yes"/>
      <point x="1041" y="-20"/>
      <point x="1236" y="129"/>
      <point x="1294" y="366" type="curve"/>
      <point x="1189" y="410" type="line"/>
      <point x="1171" y="410" type="line"/>
      <point x="1118" y="222"/>
      <point x="971" y="105"/>
      <point x="788" y="105" type="curve" smooth="yes"/>
      <point x="486" y="105"/>
      <point x="297" y="345"/>
      <point x="297" y="728" type="curve" smooth="yes"/>
      <point x="297" y="1111"/>
      <point x="486" y="1351"/>
      <point x="788" y="1351" type="curve" smooth="yes"/>
      <point x="971" y="1351"/>
      <point x="1117" y="1234"/>
      <point x="1171" y="1046" type="curve"/>
      <point x="1190" y="1046" type="line"/>
      <point x="1294" y="1090" type="line"/>
      <point x="1236" y="1327"/>
      <point x="1041" y="1476"/>
      <point x="788" y="1476" type="curve" smooth="yes"/>
    </contour>
    <contour>
      <point x="795" y="0" type="move" name="bot"/>
    </contour>
    <contour>
      <point x="833" y="1443" type="move" name="top"/>
    </contour>
  </outline>
</glyph>
<glyph name="D" format="1">
  <advance width="1536.400"/>
  <unicode hex="0044"/>
  <outline>
    <contour>
      <point x="209" y="0" type="line"/>
      <point x="1115" y="-81"/>
      <point x="1397" y="172"/>
      <point x="1397" y="734" type="curve" smooth="yes"/>
      <point x="1397" y="1311"/>
      <point x="1069" y="1536"/>
      <point x="209" y="1456" type="curve"/>
    </contour>
    <contour>
      <point x="312" y="1337" type="line"/>
      <point x="998" y="1389"/>
      <point x="1240" y="1223"/>
      <point x="1240" y="729" type="curve" smooth="yes"/>
      <point x="1240" y="264"/>
      <point x="1034" y="67"/>
      <point x="312" y="121" type="curve"/>
      <point x="367" y="65" type="line"/>
      <point x="367" y="1391" type="line"/>
    </contour>
    <contour>
      <point x="768" y="0" type="move" name="bot"/>
    </contour>
    <contour>
      <point x="768" y="1443" type="move" name="top"/>
    </contour>
    <contour>
      <point x="314" y="737" type="move" name="mid"/>
    </contour>
  </outline>
</glyph>
<glyph name="E" format="1">
  <advance width="1164.400"/>
  <unicode hex="0045"/>
  <outline>
    <contour>
      <point x="209" y="1456" type="line"/>
      <point x="209" y="0" type="line"/>
      <point x="1076" y="0" type="line"/>
      <point x="1087" y="121" type="line"/>
      <point x="316" y="121" type="line"/>
      <point x="367" y="69" type="line"/>
      <point x="367" y="730" type="line"/>
      <point x="316" y="685" type="line"/>
      <point x="1013" y="685" type="line"/>
      <point x="1013" y="805" type="line"/>
      <point x="316" y="805" type="line"/>
      <point x="367" y="756" type="line"/>
      <point x="367" y="1383" type="line"/>
      <point x="317" y="1337" type="line"/>
      <point x="1079" y="1337" type="line"/>
      <point x="1085" y="1456" type="line"/>
    </contour>
    <contour>
      <point x="682" y="0" type="move" name="bot"/>
    </contour>
    <contour>
      <point x="749" y="0" type="move" name="ogonek"/>
    </contour>
    <contour>
      <point x="662" y="1456" type="move" name="top"/>
    </contour>
  </outline>
</glyph>
<glyph name="F" format="1">
  <advance width="1092"/>
  <unicode hex="0046"/>
  <outline>
    <contour>
      <point x="209" y="1456" type="line"/>
      <point x="209" y="0" type="line"/>
      <point x="370" y="0" type="line"/>
      <point x="370" y="714" type="line"/>
      <point x="309" y="667" type="line"/>
      <point x="972" y="667" type="line"/>
      <point x="972" y="782" type="line"/>
      <point x="303" y="782" type="line"/>
      <point x="370" y="735" type="line"/>
      <point x="370" y="1395" type="line"/>
      <point x="302" y="1335" type="line"/>
      <point x="1020" y="1335" type="line"/>
      <point x="1030" y="1456" type="line"/>
    </contour>
    <contour>
      <point x="546" y="0" type="move" name="bot"/>
    </contour>
    <contour>
      <point x="626" y="1456" type="move" name="top"/>
    </contour>
  </outline>
</glyph>
<glyph name="G" format="1">
  <advance width="1477.600"/>
  <unicode hex="0047"/>
  <outline>
    <contour>
      <point x="407" y="1476"/>
      <point x="138" y="1156"/>
      <point x="138" y="718" type="curve" smooth="yes"/>
      <point x="138" y="299"/>
      <point x="371" y="-19"/>
      <point x="824" y="-19" type="curve" smooth="yes"/>
      <point x="1021" y="-19"/>
      <point x="1176" y="13"/>
      <point x="1321" y="68" type="curve"/>
      <point x="1321" y="731" type="line"/>
      <point x="852" y="731" type="line"/>
      <point x="844" y="603" type="line"/>
      <point x="1228" y="603" type="line"/>
      <point x="1172" y="658" type="line"/>
      <point x="1172" y="93" type="line"/>
      <point x="1221" y="167" type="line"/>
      <point x="1163" y="144"/>
      <point x="1027" y="106"/>
      <point x="858" y="106" type="curve" smooth="yes"/>
      <point x="456" y="106"/>
      <point x="296" y="351"/>
      <point x="296" y="719" type="curve" smooth="yes"/>
      <point x="296" y="1083"/>
      <point x="499" y="1352"/>
      <point x="853" y="1352" type="curve" smooth="yes"/>
      <point x="1067" y="1352"/>
      <point x="1163" y="1289"/>
      <point x="1229" y="1250" type="curve"/>
      <point x="1243" y="1250" type="line"/>
      <point x="1280" y="1363" type="line"/>
      <point x="1167" y="1446"/>
      <point x="1020" y="1476"/>
      <point x="853" y="1476" type="curve" smooth="yes"/>
    </contour>
    <contour>
      <point x="809" y="0" type="move" name="bot"/>
    </contour>
    <contour>
      <point x="854" y="1456" type="move" name="top"/>
    </contour>
  </outline>
</glyph>
<glyph name="H" format="1">
  <advance width="1512.800"/>
  <unicode hex="0048"/>
  <outline>
    <contour>
      <point x="1148" y="1456" type="line"/>
      <point x="1148" y="754" type="line"/>
      <point x="1210" y="799" type="line"/>
      <point x="304" y="799" type="line"/>
      <point x="365" y="754" type="line"/>
      <point x="365" y="1456" type="line"/>
      <point x="207" y="1456" type="line"/>
      <point x="207" y="0" type="line"/>
      <point x="365" y="0" type="line"/>
      <point x="365" y="729" type="line"/>
      <point x="304" y="684" type="line"/>
      <point x="1213" y="684" type="line"/>
      <point x="1148" y="729" type="line"/>
      <point x="1148" y="0" type="line"/>
      <point x="1306" y="0" type="line"/>
      <point x="1306" y="1456" type="line"/>
    </contour>
    <contour>
      <point x="756" y="0" type="move" name="bot"/>
    </contour>
    <contour>
      <point x="756" y="1456" type="move" name="top"/>
    </contour>
  </outline>
</glyph>
<glyph name="I" format="1">
  <advance width="778"/>
  <unicode hex="0049"/>
  <outline>
    <contour>
      <point x="115" y="1456" type="line"/>
      <point x="115" y="1359" type="line"/>
      <point x="357" y="1359" type="line"/>
      <point x="311" y="1403" type="line"/>
      <point x="311" y="47" type="line"/>
      <point x="361" y="97" type="line"/>
      <point x="115" y="97" type="line"/>
      <point x="115" y="0" type="line"/>
      <point x="663" y="0" type="line"/>
      <point x="663" y="97" type="line"/>
      <point x="417" y="97" type="line"/>
      <point x="469" y="49" type="line"/>
      <point x="469" y="1402" type="line"/>
      <point x="421" y="1359" type="line"/>
      <point x="663" y="1359" type="line"/>
      <point x="663" y="1456" type="line"/>
    </contour>
    <contour>
      <point x="389" y="0" type="move" name="bot"/>
    </contour>
    <contour>
      <point x="429" y="0" type="move" name="ogonek"/>
    </contour>
    <contour>
      <point x="389" y="1456" type="move" name="top"/>
    </contour>
  </outline>
</glyph>
<glyph name="J" format="1">
  <advance width="743.400"/>
  <unicode hex="004A"/>
  <outline>
    <contour>
      <point x="376" y="1456" type="line"/>
      <point x="376" y="116" type="line" smooth="yes"/>
      <point x="376" y="-89"/>
      <point x="369" y="-126"/>
      <point x="180" y="-211" type="curve" smooth="yes"/>
      <point x="89" y="-252" type="line"/>
      <point x="147" y="-388" type="line"/>
      <point x="247" y="-347" type="line" smooth="yes"/>
      <point x="543" y="-226"/>
      <point x="534" y="-153"/>
      <point x="534" y="143" type="curve" smooth="yes"/>
      <point x="534" y="1456" type="line"/>
    </contour>
    <contour>
      <point x="372" y="0" type="move" name="bot"/>
    </contour>
    <contour>
      <point x="457" y="1456" type="move" name="top"/>
    </contour>
  </outline>
</glyph>
<glyph name="K" format="1">
  <advance width="1300.600"/>
  <unicode hex="004B"/>
  <outline>
    <contour>
      <point x="1210" y="1456" type="line"/>
      <point x="1037" y="1456" type="line"/>
      <point x="320" y="695" type="line"/>
      <point x="367" y="686" type="line"/>
      <point x="367" y="1456" type="line"/>
      <point x="209" y="1456" type="line"/>
      <point x="209" y="0" type="line"/>
      <point x="367" y="0" type="line"/>
      <point x="367" y="651" type="line"/>
      <point x="319" y="547" type="line"/>
      <point x="543" y="755" type="line"/>
      <point x="467" y="759" type="line"/>
      <point x="1067" y="0" type="line"/>
      <point x="1246" y="0" type="line"/>
      <point x="1246" y="9" type="line"/>
      <point x="579" y="849" type="line"/>
      <point x="579" y="766" type="line"/>
      <point x="1210" y="1443" type="line"/>
    </contour>
    <contour>
      <point x="650" y="0" type="move" name="bot"/>
    </contour>
    <contour>
      <point x="650" y="1456" type="move" name="top"/>
    </contour>
  </outline>
</glyph>
<glyph name="L" format="1">
  <advance width="1110"/>
  <unicode hex="004C"/>
  <outline>
    <contour>
      <point x="209" y="1456" type="line"/>
      <point x="209" y="0" type="line"/>
      <point x="1044" y="0" type="line"/>
      <point x="1047" y="121" type="line"/>
      <point x="302" y="121" type="line"/>
      <point x="367" y="54" type="line"/>
      <point x="367" y="1456" type="line"/>
    </contour>
    <contour>
      <point x="367" y="1057" type="move" name="caron.alt"/>
    </contour>
    <contour>
      <point x="555" y="1456" type="move" name="top"/>
    </contour>
    <contour>
      <point x="566" y="731" type="move" name="mid"/>
    </contour>
    <contour>
      <point x="555" y="0" type="move" name="bot"/>
    </contour>
  </outline>
</glyph>
<glyph name="M" format="1">
  <advance width="1813.800"/>
  <unicode hex="004D"/>
  <outline>
    <contour>
      <point x="195" y="0" type="line"/>
      <point x="341" y="0" type="line"/>
      <point x="341" y="632" type="line"/>
      <point x="352" y="1355" type="line"/>
      <point x="321" y="1355" type="line"/>
      <point x="836" y="157" type="line"/>
      <point x="978" y="157" type="line"/>
      <point x="1501" y="1355" type="line"/>
      <point x="1464" y="1355" type="line"/>
      <point x="1474" y="634" type="line"/>
      <point x="1474" y="0" type="line"/>
      <point x="1620" y="0" type="line"/>
      <point x="1620" y="633" type="line"/>
      <point x="1597" y="1456" type="line"/>
      <point x="1400" y="1456" type="line"/>
      <point x="875" y="242" type="line"/>
      <point x="942" y="242" type="line"/>
      <point x="419" y="1456" type="line"/>
      <point x="215" y="1456" type="line"/>
      <point x="195" y="632" type="line"/>
    </contour>
    <contour>
      <point x="907" y="0" type="move" name="bot"/>
    </contour>
    <contour>
      <point x="926" y="1456" type="move" name="top"/>
    </contour>
  </outline>
</glyph>
<glyph name="N" format="1">
  <advance width="1566.200"/>
  <unicode hex="004E"/>
  <outline>
    <contour>
      <point x="1214" y="1456" type="line"/>
      <point x="1214" y="596" type="line"/>
      <point x="1224" y="126" type="line"/>
      <point x="1267" y="130" type="line"/>
      <point x="362" y="1456" type="line"/>
      <point x="209" y="1456" type="line"/>
      <point x="209" y="0" type="line"/>
      <point x="353" y="0" type="line"/>
      <point x="353" y="821" type="line"/>
      <point x="337" y="1334" type="line"/>
      <point x="297" y="1317" type="line"/>
      <point x="1198" y="0" type="line"/>
      <point x="1357" y="0" type="line"/>
      <point x="1357" y="1456" type="line"/>
    </contour>
    <contour>
      <point x="783" y="0" type="move" name="bot"/>
    </contour>
    <contour>
      <point x="783" y="1456" type="move" name="top"/>
    </contour>
  </outline>
</glyph>
<glyph name="O" format="1">
  <advance width="1649.800"/>
  <unicode hex="004F"/>
  <outline>
    <contour>
      <point x="386" y="1476"/>
      <point x="139" y="1178"/>
      <point x="139" y="716" type="curve" smooth="yes"/>
      <point x="139" y="276"/>
      <point x="375" y="-20"/>
      <point x="827" y="-20" type="curve" smooth="yes"/>
      <point x="1273" y="-20"/>
      <point x="1510" y="283"/>
      <point x="1510" y="714" type="curve" smooth="yes"/>
      <point x="1510" y="1174"/>
      <point x="1260" y="1476"/>
      <point x="828" y="1476" type="curve" smooth="yes"/>
    </contour>
    <contour>
      <point x="1183" y="1351"/>
      <point x="1352" y="1095"/>
      <point x="1352" y="716" type="curve" smooth="yes"/>
      <point x="1352" y="360"/>
      <point x="1191" y="105"/>
      <point x="826" y="105" type="curve" smooth="yes"/>
      <point x="460" y="105"/>
      <point x="297" y="360"/>
      <point x="297" y="716" type="curve" smooth="yes"/>
      <point x="297" y="1097"/>
      <point x="472" y="1351"/>
      <point x="827" y="1351" type="curve" smooth="yes"/>
    </contour>
    <contour>
      <point x="825" y="0" type="move" name="bot"/>
    </contour>
    <contour>
      <point x="883" y="0" type="move" name="ogonek"/>
    </contour>
    <contour>
      <point x="825" y="1456" type="move" name="top"/>
    </contour>
  </outline>
</glyph>
<glyph name="P" format="1">
  <advance width="1247.800"/>
  <unicode hex="0050"/>
  <outline>
    <contour>
      <point x="209" y="1456" type="curve"/>
      <point x="209" y="0" type="line"/>
      <point x="367" y="0" type="line"/>
      <point x="367" y="758" type="line"/>
      <point x="308" y="709" type="line"/>
      <point x="987" y="660"/>
      <point x="1156" y="782"/>
      <point x="1156" y="1102" type="curve" smooth="yes"/>
      <point x="1156" y="1423"/>
      <point x="910" y="1506"/>
    </contour>
    <contour>
      <point x="308" y="1337" type="line"/>
      <point x="847" y="1376"/>
      <point x="998" y="1330"/>
      <point x="998" y="1101" type="curve" smooth="yes"/>
      <point x="998" y="841"/>
      <point x="902" y="805"/>
      <point x="308" y="830" type="curve"/>
      <point x="368" y="785" type="line"/>
      <point x="368" y="1393" type="line"/>
    </contour>
    <contour>
      <point x="624" y="0" type="move" name="bot"/>
    </contour>
    <contour>
      <point x="624" y="1456" type="move" name="top"/>
    </contour>
  </outline>
</glyph>
<glyph name="Q" format="1">
  <advance width="1649.400"/>
  <unicode hex="0051"/>
  <outline>
    <contour>
      <point x="951" y="4" type="line"/>
      <point x="1040" y="-169"/>
      <point x="1194" y="-361"/>
      <point x="1258" y="-424" type="curve"/>
      <point x="1347" y="-340" type="line"/>
      <point x="1259" y="-250"/>
      <point x="1130" y="-80"/>
      <point x="1079" y="26" type="curve"/>
    </contour>
    <component base="O"/>
  </outline>
</glyph>
<glyph name="R" format="1">
  <advance width="1411.400"/>
  <unicode hex="0052"/>
  <outline>
    <contour>
      <point x="209" y="0" type="line"/>
      <point x="367" y="0" type="line"/>
      <point x="367" y="754" type="line"/>
      <point x="308" y="710" type="line"/>
      <point x="898" y="710" type="line"/>
      <point x="809" y="766" type="line"/>
      <point x="1133" y="0" type="line"/>
      <point x="1287" y="0" type="line"/>
      <point x="1287" y="20" type="line"/>
      <point x="951" y="803" type="line"/>
      <point x="943" y="723" type="line"/>
      <point x="1133" y="761"/>
      <point x="1237" y="868"/>
      <point x="1237" y="1090" type="curve" smooth="yes"/>
      <point x="1237" y="1421"/>
      <point x="1088" y="1509"/>
      <point x="209" y="1456" type="curve"/>
    </contour>
    <contour>
      <point x="367" y="779" type="line"/>
      <point x="307" y="827" type="line"/>
      <point x="768" y="827" type="line" smooth="yes"/>
      <point x="1030" y="827"/>
      <point x="1083" y="899"/>
      <point x="1083" y="1088" type="curve" smooth="yes"/>
      <point x="1083" y="1326"/>
      <point x="1016" y="1376"/>
      <point x="307" y="1337" type="curve"/>
      <point x="367" y="1391" type="line"/>
    </contour>
    <contour>
      <point x="706" y="0" type="move" name="bot"/>
    </contour>
    <contour>
      <point x="706" y="1456" type="move" name="top"/>
    </contour>
  </outline>
</glyph>
<glyph name="S" format="1">
  <advance width="1205.436"/>
  <unicode hex="0053"/>
  <outline>
    <contour>
      <point x="201" y="228" type="line"/>
      <point x="150" y="124" type="line"/>
      <point x="214" y="75"/>
      <point x="361" y="-20"/>
      <point x="621" y="-20" type="curve" smooth="yes"/>
      <point x="885" y="-20"/>
      <point x="1076" y="85"/>
      <point x="1089" y="373" type="curve" smooth="yes"/>
      <point x="1101" y="634"/>
      <point x="940" y="712"/>
      <point x="736" y="790" type="curve" smooth="yes"/>
      <point x="506" y="880" type="line" smooth="yes"/>
      <point x="357" y="938"/>
      <point x="310" y="980"/>
      <point x="310" y="1112" type="curve" smooth="yes"/>
      <point x="310" y="1297"/>
      <point x="468" y="1351"/>
      <point x="632" y="1351" type="curve" smooth="yes"/>
      <point x="784" y="1351"/>
      <point x="910" y="1283"/>
      <point x="961" y="1253" type="curve"/>
      <point x="976" y="1253" type="line"/>
      <point x="1034" y="1354" type="line"/>
      <point x="957" y="1412"/>
      <point x="800" y="1476"/>
      <point x="632" y="1476" type="curve" smooth="yes"/>
      <point x="403" y="1476"/>
      <point x="166" y="1388"/>
      <point x="166" y="1102" type="curve" smooth="yes"/>
      <point x="166" y="902"/>
      <point x="279" y="824"/>
      <point x="462" y="753" type="curve" smooth="yes"/>
      <point x="700" y="663" type="line" smooth="yes"/>
      <point x="893" y="588"/>
      <point x="952" y="532"/>
      <point x="947" y="370" type="curve" smooth="yes"/>
      <point x="941" y="179"/>
      <point x="834" y="105"/>
      <point x="621" y="105" type="curve" smooth="yes"/>
      <point x="446" y="105"/>
      <point x="311" y="162"/>
      <point x="219" y="228" type="curve"/>
    </contour>
    <contour>
      <point x="603" y="0" type="move" name="bot"/>
    </contour>
    <contour>
      <point x="617" y="1456" type="move" name="top"/>
    </contour>
  </outline>
</glyph>
<glyph name="T" format="1">
  <advance width="1150.200"/>
  <unicode hex="0054"/>
  <outline>
    <contour>
      <point x="55" y="1456" type="line"/>
      <point x="55" y="1337" type="line"/>
      <point x="543" y="1337" type="line"/>
      <point x="493" y="1392" type="line"/>
      <point x="493" y="0" type="line"/>
      <point x="652" y="0" type="line"/>
      <point x="652" y="1394" type="line"/>
      <point x="602" y="1337" type="line"/>
      <point x="1095" y="1337" type="line"/>
      <point x="1095" y="1456" type="line"/>
    </contour>
    <contour>
      <point x="575" y="0" type="move" name="bot"/>
    </contour>
    <contour>
      <point x="575" y="1456" type="move" name="top"/>
    </contour>
    <contour>
      <point x="580" y="728" type="move" name="mid"/>
    </contour>
  </outline>
</glyph>
<glyph name="U" format="1">
  <advance width="1478.600"/>
  <unicode hex="0055"/>
  <outline>
    <contour>
      <point x="1152" y="1456" type="line"/>
      <point x="1152" y="532" type="line" smooth="yes"/>
      <point x="1152" y="255"/>
      <point x="1013" y="106"/>
      <point x="740" y="106" type="curve" smooth="yes"/>
      <point x="455" y="106"/>
      <point x="326" y="256"/>
      <point x="326" y="533" type="curve" smooth="yes"/>
      <point x="326" y="1456" type="line"/>
      <point x="168" y="1456" type="line"/>
      <point x="168" y="531" type="line" smooth="yes"/>
      <point x="168" y="208"/>
      <point x="348" y="-19"/>
      <point x="740" y="-19" type="curve" smooth="yes"/>
      <point x="1127" y="-19"/>
      <point x="1310" y="216"/>
      <point x="1310" y="529" type="curve" smooth="yes"/>
      <point x="1310" y="1456" type="line"/>
    </contour>
    <contour>
      <point x="739" y="0" type="move" name="bot"/>
    </contour>
    <contour>
      <point x="839" y="0" type="move" name="ogonek"/>
    </contour>
    <contour>
      <point x="763" y="1456" type="move" name="top"/>
    </contour>
  </outline>
</glyph>
<glyph name="V" format="1">
  <advance width="1365.600"/>
  <unicode hex="0056"/>
  <outline>
    <contour>
      <point x="1133" y="1456" type="line"/>
      <point x="797" y="513" type="line"/>
      <point x="653" y="117" type="line"/>
      <point x="713" y="117" type="line"/>
      <point x="570" y="509" type="line"/>
      <point x="233" y="1456" type="line"/>
      <point x="71" y="1456" type="line"/>
      <point x="619" y="0" type="line"/>
      <point x="747" y="0" type="line"/>
      <point x="1294" y="1456" type="line"/>
    </contour>
  </outline>
</glyph>
<glyph name="W" format="1">
  <advance width="2068.400"/>
  <unicode hex="0057"/>
  <outline>
    <contour>
      <point x="1858" y="1456" type="line"/>
      <point x="1467" y="129" type="line"/>
      <point x="1509" y="129" type="line"/>
      <point x="1112" y="1408" type="line"/>
      <point x="957" y="1408" type="line"/>
      <point x="563" y="128" type="line"/>
      <point x="604" y="128" type="line"/>
      <point x="208" y="1456" type="line"/>
      <point x="58" y="1456" type="line"/>
      <point x="505" y="0" type="line"/>
      <point x="656" y="0" type="line"/>
      <point x="1061" y="1307" type="line"/>
      <point x="1012" y="1307" type="line"/>
      <point x="1410" y="0" type="line"/>
      <point x="1565" y="0" type="line"/>
      <point x="2010" y="1456" type="line"/>
    </contour>
    <contour>
      <point x="1034" y="0" type="move" name="bot"/>
    </contour>
    <contour>
      <point x="1036" y="1456" type="move" name="top"/>
    </contour>
  </outline>
</glyph>
<glyph name="X" format="1">
  <advance width="1352"/>
  <unicode hex="0058"/>
  <outline>
    <contour>
      <point x="1072" y="1456" type="line"/>
      <point x="683" y="822" type="line"/>
      <point x="606" y="752" type="line"/>
      <point x="133" y="0" type="line"/>
      <point x="286" y="0" type="line"/>
      <point x="689" y="646" type="line"/>
      <point x="757" y="707" type="line"/>
      <point x="1229" y="1456" type="line"/>
    </contour>
    <contour>
      <point x="126" y="1456" type="line"/>
      <point x="1082" y="0" type="line"/>
      <point x="1233" y="0" type="line"/>
      <point x="279" y="1456" type="line"/>
    </contour>
  </outline>
</glyph>
<glyph name="Z" format="1">
  <advance width="1220.200"/>
  <unicode hex="005A"/>
  <outline>
    <contour>
      <point x="185" y="1456" type="line"/>
      <point x="185" y="1337" type="line"/>
      <point x="981" y="1337" type="line"/>
      <point x="948" y="1381" type="line"/>
      <point x="148" y="116" type="line"/>
      <point x="148" y="0" type="line"/>
      <point x="1091" y="0" type="line"/>
      <point x="1100" y="121" type="line"/>
      <point x="263" y="121" type="line"/>
      <point x="287" y="66" type="line"/>
      <point x="1094" y="1346" type="line"/>
      <point x="1086" y="1456" type="line"/>
    </contour>
    <contour>
      <point x="610" y="0" type="move" name="bot"/>
    </contour>
    <contour>
      <point x="610" y="1456" type="move" name="top"/>
    </contour>
  </outline>
</glyph>
<glyph name="bracketleft" format="1">
  <advance width="663.200"/>
  <unicode hex="005B"/>
  <outline>
    <contour>
      <point x="189" y="-268" type="line"/>
      <point x="621" y="-268" type="line"/>
      <point x="621" y="-161" type="line"/>
      <point x="320" y="-161" type="line"/>
      <point x="320" y="1352" type="line"/>
      <point x="621" y="1352" type="line"/>
      <point x="621" y="1460" type="line"/>
      <point x="189" y="1460" type="line"/>
    </contour>
  </outline>
</glyph>
<glyph name="backslash" format="1">
  <advance width="935.800"/>
  <unicode hex="005C"/>
  <outline>
    <contour>
      <point x="684" y="-48" type="line"/>
      <point x="799" y="-48" type="line"/>
      <point x="244" y="1440" type="line"/>
      <point x="129" y="1440" type="line"/>
    </contour>
  </outline>
</glyph>
<glyph name="bracketright" format="1">
  <advance width="665.600"/>
  <unicode hex="005D"/>
  <outline>
    <contour>
      <point x="56" y="-268" type="line"/>
      <point x="488" y="-268" type="line"/>
      <point x="488" y="1460" type="line"/>
      <point x="56" y="1460" type="line"/>
      <point x="56" y="1352" type="line"/>
      <point x="358" y="1352" type="line"/>
      <point x="358" y="-162" type="line"/>
      <point x="56" y="-162" type="line"/>
    </contour>
  </outline>
</glyph>
<glyph name="asciicircum" format="1">
  <advance width="1278.600"/>
  <unicode hex="005E"/>
  <outline>
    <contour>
      <point x="591" y="1483" type="line"/>
      <point x="166" y="588" type="line"/>
      <point x="278" y="588" type="line"/>
      <point x="635" y="1344" type="line"/>
      <point x="1011" y="588" type="line"/>
      <point x="1125" y="588" type="line"/>
      <point x="676" y="1483" type="line"/>
    </contour>
  </outline>
</glyph>
<glyph name="underscore" format="1">
  <advance width="1064"/>
  <unicode hex="005F"/>
  <outline>
    <contour>
      <point x="89" y="-270" type="line"/>
      <point x="975" y="-270" type="line"/>
      <point x="975" y="-162" type="line"/>
      <point x="89" y="-162" type="line"/>
    </contour>
  </outline>
</glyph>
<glyph name="grave" format="1">
  <advance width="679"/>
  <unicode hex="0060"/>
  <outline>
    <contour>
      <point x="386" y="1233" type="line"/>
      <point x="468" y="1233" type="line"/>
      <point x="293" y="1607" type="line"/>
      <point x="124" y="1607" type="line"/>
    </contour>
    <contour>
      <point x="457" y="1057" type="move" name="_top"/>
    </contour>
  </outline>
</glyph>
<glyph name="a" format="1">
  <advance width="1132.800"/>
  <unicode hex="0061"/>
  <outline>
    <contour>
      <point x="184" y="1018" type="curve"/>
      <point x="226" y="913" type="line"/>
      <point x="324" y="962"/>
      <point x="458" y="989"/>
      <point x="563" y="989" type="curve" smooth="yes"/>
      <point x="733" y="989"/>
      <point x="815" y="903"/>
      <point x="815" y="747" type="curve" smooth="yes"/>
      <point x="815" y="592" type="line"/>
      <point x="849" y="628" type="line"/>
      <point x="614" y="624" type="line" smooth="yes"/>
      <point x="269" y="620"/>
      <point x="119" y="506"/>
      <point x="119" y="280" type="curve" smooth="yes"/>
      <point x="119" y="83"/>
      <point x="258" y="-20"/>
      <point x="449" y="-20" type="curve" smooth="yes"/>
      <point x="582" y="-20"/>
      <point x="746" y="25"/>
      <point x="865" y="201" type="curve"/>
      <point x="826" y="208" type="line"/>
      <point x="855" y="1" type="line"/>
      <point x="963" y="1" type="line"/>
      <point x="963" y="724" type="line" smooth="yes"/>
      <point x="963" y="1006"/>
      <point x="794" y="1102"/>
      <point x="553" y="1102" type="curve" smooth="yes"/>
      <point x="431" y="1102"/>
      <point x="281" y="1069"/>
    </contour>
    <contour>
      <point x="815" y="236" type="line"/>
      <point x="849" y="346" type="line"/>
      <point x="758" y="170"/>
      <point x="614" y="92"/>
      <point x="453" y="92" type="curve" smooth="yes"/>
      <point x="358" y="92"/>
      <point x="265" y="148"/>
      <point x="265" y="281" type="curve" smooth="yes"/>
      <point x="265" y="438"/>
      <point x="337" y="522"/>
      <point x="650" y="525" type="curve" smooth="yes"/>
      <point x="846" y="527" type="line"/>
      <point x="815" y="562" type="line"/>
    </contour>
    <contour>
      <point x="566" y="0" type="move" name="bot"/>
    </contour>
    <contour>
      <point x="547" y="1078" type="move" name="top"/>
    </contour>
    <contour>
      <point x="919" y="0" type="move" name="ogonek"/>
    </contour>
  </outline>
</glyph>
<glyph name="b" format="1">
  <advance width="1246.600"/>
  <unicode hex="0062"/>
  <outline>
    <contour>
      <point x="176" y="1540" type="line"/>
      <point x="176" y="0" type="line"/>
      <point x="298" y="0" type="line"/>
      <point x="318" y="247" type="line"/>
      <point x="271" y="241" type="line"/>
      <point x="315" y="118"/>
      <point x="446" y="-19"/>
      <point x="672" y="-19" type="curve" smooth="yes"/>
      <point x="971" y="-19"/>
      <point x="1132" y="197"/>
      <point x="1132" y="525" type="curve" smooth="yes"/>
      <point x="1132" y="857"/>
      <point x="983" y="1078"/>
      <point x="680" y="1078" type="curve" smooth="yes"/>
      <point x="504" y="1078"/>
      <point x="361" y="968"/>
      <point x="297" y="824" type="curve"/>
      <point x="329" y="820" type="line"/>
      <point x="330" y="1070" type="line"/>
      <point x="330" y="1560" type="line"/>
    </contour>
    <contour>
      <point x="898" y="963"/>
      <point x="980" y="778"/>
      <point x="980" y="526" type="curve" smooth="yes"/>
      <point x="980" y="265"/>
      <point x="887" y="96"/>
      <point x="663" y="96" type="curve" smooth="yes"/>
      <point x="491" y="96"/>
      <point x="390" y="183"/>
      <point x="326" y="313" type="curve"/>
      <point x="326" y="543" type="line"/>
      <point x="326" y="791"/>
      <point x="430" y="963"/>
      <point x="671" y="963" type="curve" smooth="yes"/>
    </contour>
    <contour>
      <point x="623" y="1057" type="move" name="top"/>
    </contour>
  </outline>
</glyph>
<glyph name="c" format="1">
  <advance width="991.400"/>
  <unicode hex="0063"/>
  <outline>
    <contour>
      <point x="877" y="258" type="line"/>
      <point x="840" y="158"/>
      <point x="736" y="96"/>
      <point x="606" y="96" type="curve" smooth="yes"/>
      <point x="398" y="96"/>
      <point x="267" y="268"/>
      <point x="267" y="543" type="curve" smooth="yes"/>
      <point x="267" y="815"/>
      <point x="398" y="986"/>
      <point x="606" y="986" type="curve" smooth="yes"/>
      <point x="726" y="986"/>
      <point x="830" y="924"/>
      <point x="874" y="824" type="curve"/>
      <point x="893" y="824" type="line"/>
      <point x="984" y="872" type="line"/>
      <point x="936" y="1013"/>
      <point x="790" y="1102"/>
      <point x="606" y="1102" type="curve" smooth="yes"/>
      <point x="306" y="1102"/>
      <point x="117" y="886"/>
      <point x="117" y="543" type="curve" smooth="yes"/>
      <point x="117" y="197"/>
      <point x="306" y="-20"/>
      <point x="606" y="-20" type="curve" smooth="yes"/>
      <point x="790" y="-20"/>
      <point x="936" y="69"/>
      <point x="984" y="210" type="curve"/>
      <point x="894" y="258" type="line"/>
    </contour>
    <contour>
      <point x="545" y="0" type="move" name="bot"/>
    </contour>
    <contour>
      <point x="602" y="1082" type="move" name="top"/>
    </contour>
  </outline>
</glyph>
<glyph name="d" format="1">
  <advance width="1240.600"/>
  <unicode hex="0064"/>
  <outline>
    <contour>
      <point x="915" y="1540" type="line"/>
      <point x="915" y="1135" type="line"/>
      <point x="926" y="791" type="line"/>
      <point x="959" y="800" type="line"/>
      <point x="895" y="943"/>
      <point x="808" y="1078"/>
      <point x="572" y="1078" type="curve" smooth="yes"/>
      <point x="287" y="1078"/>
      <point x="117" y="856"/>
      <point x="117" y="536" type="curve" smooth="yes"/>
      <point x="117" y="200"/>
      <point x="275" y="-19"/>
      <point x="575" y="-19" type="curve" smooth="yes"/>
      <point x="805" y="-19"/>
      <point x="910" y="133"/>
      <point x="961" y="284" type="curve"/>
      <point x="922" y="288" type="line"/>
      <point x="941" y="0" type="line"/>
      <point x="1066" y="0" type="line"/>
      <point x="1066" y="1560" type="line"/>
    </contour>
    <contour>
      <point x="797" y="963"/>
      <point x="919" y="804"/>
      <point x="919" y="517" type="curve" smooth="yes"/>
      <point x="919" y="270"/>
      <point x="822" y="96"/>
      <point x="582" y="96" type="curve" smooth="yes"/>
      <point x="355" y="96"/>
      <point x="268" y="281"/>
      <point x="268" y="533" type="curve" smooth="yes"/>
      <point x="268" y="796"/>
      <point x="370" y="963"/>
      <point x="591" y="963" type="curve" smooth="yes"/>
    </contour>
    <contour>
      <point x="620" y="1057" type="move" name="top"/>
    </contour>
    <contour>
      <point x="1065" y="1057" type="move" name="caron.alt"/>
    </contour>
    <contour>
      <point x="956" y="1252" type="move" name="mid"/>
    </contour>
  </outline>
</glyph>
<glyph name="e" format="1">
  <advance width="1146.800"/>
  <unicode hex="0065"/>
  <outline>
    <contour>
      <point x="625" y="-20" type="curve" smooth="yes"/>
      <point x="781" y="-20"/>
      <point x="903" y="15"/>
      <point x="1004" y="73" type="curve"/>
      <point x="967" y="168" type="line"/>
      <point x="951" y="168" type="line"/>
      <point x="852" y="123"/>
      <point x="752" y="95"/>
      <point x="643" y="95" type="curve" smooth="yes"/>
      <point x="433" y="95"/>
      <point x="264" y="240"/>
      <point x="264" y="558" type="curve"/>
      <point x="221" y="524" type="line"/>
      <point x="1022" y="524" type="line"/>
      <point x="1022" y="524"/>
      <point x="1029" y="576"/>
      <point x="1029" y="604" type="curve" smooth="yes"/>
      <point x="1029" y="900"/>
      <point x="877" y="1102"/>
      <point x="613" y="1102" type="curve" smooth="yes"/>
      <point x="344" y="1101"/>
      <point x="117" y="886"/>
      <point x="117" y="540" type="curve" smooth="yes"/>
      <point x="117" y="201"/>
      <point x="329" y="-20"/>
    </contour>
    <contour>
      <point x="896" y="580" type="line"/>
      <point x="895" y="843"/>
      <point x="808" y="989"/>
      <point x="617" y="989" type="curve" smooth="yes"/>
      <point x="420" y="989"/>
      <point x="277" y="824"/>
      <point x="267" y="588" type="curve"/>
      <point x="221" y="623" type="line"/>
      <point x="945" y="623" type="line"/>
    </contour>
    <contour>
      <point x="573" y="0" type="move" name="bot"/>
    </contour>
    <contour>
      <point x="613" y="1082" type="move" name="top"/>
    </contour>
    <contour>
      <point x="741" y="0" type="move" name="ogonek"/>
    </contour>
  </outline>
</glyph>
<glyph name="f" format="1">
  <advance width="751.600"/>
  <unicode hex="0066"/>
  <outline>
    <contour>
      <point x="382" y="1481"/>
      <point x="275" y="1391"/>
      <point x="275" y="1128" type="curve" smooth="yes"/>
      <point x="275" y="1026" type="line"/>
      <point x="318" y="1061" type="line"/>
      <point x="82" y="1040" type="line"/>
      <point x="77" y="963" type="line"/>
      <point x="309" y="963" type="line"/>
      <point x="275" y="1001" type="line"/>
      <point x="275" y="0" type="line"/>
      <point x="426" y="0" type="line"/>
      <point x="426" y="999" type="line"/>
      <point x="383" y="963" type="line"/>
      <point x="678" y="963" type="line"/>
      <point x="678" y="1057" type="line"/>
      <point x="383" y="1057" type="line"/>
      <point x="426" y="1027" type="line"/>
      <point x="426" y="1136" type="line" smooth="yes"/>
      <point x="426" y="1346"/>
      <point x="490" y="1371"/>
      <point x="593" y="1371" type="curve" smooth="yes"/>
      <point x="639" y="1371"/>
      <point x="703" y="1361"/>
      <point x="709" y="1360" type="curve"/>
      <point x="719" y="1465" type="line"/>
      <point x="705" y="1467"/>
      <point x="640" y="1481"/>
      <point x="565" y="1481" type="curve" smooth="yes"/>
    </contour>
    <contour>
      <point x="384" y="1343" type="move" name="top"/>
    </contour>
  </outline>
</glyph>
<glyph name="g" format="1">
  <advance width="1257.400"/>
  <unicode hex="0067"/>
  <outline>
    <contour>
      <point x="285" y="-311" type="line"/>
      <point x="285" y="-421" type="line"/>
      <point x="329" y="-433"/>
      <point x="430" y="-453"/>
      <point x="520" y="-453" type="curve" smooth="yes"/>
      <point x="944" y="-453"/>
      <point x="1092" y="-210"/>
      <point x="1092" y="104" type="curve" smooth="yes"/>
      <point x="1092" y="1082" type="line"/>
      <point x="953" y="1082" type="line"/>
      <point x="938" y="854" type="line"/>
      <point x="972" y="856" type="line"/>
      <point x="920" y="1004"/>
      <point x="795" y="1102"/>
      <point x="600" y="1102" type="curve" smooth="yes"/>
      <point x="253" y="1102"/>
      <point x="111" y="830"/>
      <point x="111" y="536" type="curve" smooth="yes"/>
      <point x="111" y="288"/>
      <point x="255" y="4"/>
      <point x="586" y="4" type="curve" smooth="yes"/>
      <point x="807" y="4"/>
      <point x="942" y="134"/>
      <point x="981" y="285" type="curve"/>
      <point x="943" y="285" type="line"/>
      <point x="943" y="82" type="line" smooth="yes"/>
      <point x="943" y="-191"/>
      <point x="830" y="-335"/>
      <point x="509" y="-335" type="curve" smooth="yes"/>
      <point x="423" y="-335"/>
      <point x="350" y="-324"/>
      <point x="300" y="-311" type="curve"/>
    </contour>
    <contour>
      <point x="943" y="605" type="curve" smooth="yes"/>
      <point x="943" y="483" type="line" smooth="yes"/>
      <point x="943" y="297"/>
      <point x="846" y="120"/>
      <point x="599" y="120" type="curve" smooth="yes"/>
      <point x="348" y="120"/>
      <point x="262" y="359"/>
      <point x="262" y="536" type="curve" smooth="yes"/>
      <point x="262" y="754"/>
      <point x="350" y="987"/>
      <point x="603" y="987" type="curve" smooth="yes"/>
      <point x="854" y="987"/>
      <point x="943" y="818"/>
    </contour>
    <contour>
      <point x="629" y="0" type="move" name="bot"/>
    </contour>
    <contour>
      <point x="600" y="1057" type="move" name="top"/>
    </contour>
  </outline>
</glyph>
<glyph name="h" format="1">
  <advance width="1198.400"/>
  <unicode hex="0068"/>
  <outline>
    <contour>
      <point x="176" y="1540" type="line"/>
      <point x="176" y="0" type="line"/>
      <point x="327" y="0" type="line"/>
      <point x="327" y="589" type="line" smooth="yes"/>
      <point x="327" y="767"/>
      <point x="393" y="963"/>
      <point x="655" y="963" type="curve" smooth="yes"/>
      <point x="823" y="963"/>
      <point x="884" y="857"/>
      <point x="884" y="648" type="curve" smooth="yes"/>
      <point x="884" y="0" type="line"/>
      <point x="1035" y="0" type="line"/>
      <point x="1035" y="652" type="line" smooth="yes"/>
      <point x="1035" y="921"/>
      <point x="913" y="1078"/>
      <point x="680" y="1078" type="curve" smooth="yes"/>
      <point x="493" y="1078"/>
      <point x="347" y="990"/>
      <point x="281" y="825" type="curve"/>
      <point x="320" y="812" type="line"/>
      <point x="327" y="1112" type="line"/>
      <point x="327" y="1560" type="line"/>
    </contour>
    <contour>
      <point x="671" y="1343" type="move" name="top"/>
    </contour>
    <contour>
      <point x="325" y="1244" type="move" name="mid"/>
    </contour>
  </outline>
</glyph>
<glyph name="k" format="1">
  <advance width="1095.400"/>
  <unicode hex="006B"/>
  <outline>
    <contour>
      <point x="176" y="0" type="line"/>
      <point x="327" y="0" type="line"/>
      <point x="327" y="440" type="line"/>
      <point x="287" y="358" type="line"/>
      <point x="486" y="539" type="line"/>
      <point x="422" y="539" type="line"/>
      <point x="886" y="0" type="line"/>
      <point x="1050" y="0" type="line"/>
      <point x="1050" y="17" type="line"/>
      <point x="527" y="619" type="line"/>
      <point x="527" y="551" type="line"/>
      <point x="1042" y="1070" type="line"/>
      <point x="1042" y="1082" type="line"/>
      <point x="873" y="1082" type="line"/>
      <point x="285" y="498" type="line"/>
      <point x="320" y="498" type="line"/>
      <point x="327" y="742" type="line"/>
      <point x="327" y="1560" type="line"/>
      <point x="176" y="1540" type="line"/>
    </contour>
    <contour>
      <point x="569" y="0" type="move" name="bot"/>
    </contour>
    <contour>
      <point x="589" y="1255" type="move" name="top"/>
    </contour>
  </outline>
</glyph>
<glyph name="l" format="1">
  <advance width="644.200"/>
  <unicode hex="006C"/>
  <outline>
    <contour>
      <point x="176" y="1540" type="line"/>
      <point x="176" y="288" type="line" smooth="yes"/>
      <point x="176" y="46"/>
      <point x="309" y="-12"/>
      <point x="472" y="-12" type="curve" smooth="yes"/>
      <point x="546" y="-12"/>
      <point x="607" y="1"/>
      <point x="624" y="4" type="curve"/>
      <point x="624" y="106" type="line"/>
      <point x="616" y="106"/>
      <point x="559" y="98"/>
      <point x="499" y="98" type="curve" smooth="yes"/>
      <point x="373" y="98"/>
      <point x="327" y="143"/>
      <point x="327" y="275" type="curve" smooth="yes"/>
      <point x="327" y="1560" type="line"/>
    </contour>
    <contour>
      <point x="293" y="1443" type="move" name="top"/>
    </contour>
    <contour>
      <point x="543" y="814" type="move" name="mid"/>
    </contour>
    <contour>
      <point x="328" y="1057" type="move" name="caron.alt"/>
    </contour>
  </outline>
</glyph>
<glyph name="m" format="1">
  <advance width="1774"/>
  <unicode hex="006D"/>
  <outline>
    <contour>
      <point x="1101" y="1102"/>
      <point x="980" y="989"/>
      <point x="912" y="830" type="curve"/>
      <point x="951" y="830" type="line"/>
      <point x="912" y="970"/>
      <point x="845" y="1102"/>
      <point x="643" y="1102" type="curve" smooth="yes"/>
      <point x="471" y="1102"/>
      <point x="352" y="999"/>
      <point x="280" y="855" type="curve"/>
      <point x="324" y="845" type="line"/>
      <point x="298" y="1082" type="line"/>
      <point x="176" y="1082" type="line"/>
      <point x="176" y="0" type="line"/>
      <point x="327" y="0" type="line"/>
      <point x="327" y="687" type="line" smooth="yes"/>
      <point x="327" y="859"/>
      <point x="456" y="987"/>
      <point x="623" y="987" type="curve" smooth="yes"/>
      <point x="780" y="987"/>
      <point x="824" y="874"/>
      <point x="824" y="614" type="curve" smooth="yes"/>
      <point x="824" y="0" type="line"/>
      <point x="975" y="0" type="line"/>
      <point x="975" y="556" type="line" smooth="yes"/>
      <point x="975" y="643"/>
      <point x="976" y="698"/>
      <point x="983" y="725" type="curve" smooth="yes"/>
      <point x="1023" y="902"/>
      <point x="1144" y="987"/>
      <point x="1269" y="987" type="curve" smooth="yes"/>
      <point x="1469" y="987"/>
      <point x="1459" y="778"/>
      <point x="1459" y="626" type="curve" smooth="yes"/>
      <point x="1459" y="0" type="line"/>
      <point x="1610" y="0" type="line"/>
      <point x="1610" y="707" type="line" smooth="yes"/>
      <point x="1610" y="965"/>
      <point x="1507" y="1102"/>
      <point x="1291" y="1102" type="curve" smooth="yes"/>
    </contour>
    <contour>
      <point x="887" y="0" type="move" name="bot"/>
    </contour>
    <contour>
      <point x="949" y="1082" type="move" name="top"/>
    </contour>
  </outline>
</glyph>
<glyph name="n" format="1">
  <advance width="1200.600"/>
  <unicode hex="006E"/>
  <outline>
    <contour>
      <point x="480" y="1102"/>
      <point x="358" y="1009"/>
      <point x="293" y="873" type="curve"/>
      <point x="333" y="873" type="line"/>
      <point x="309" y="1082" type="line"/>
      <point x="176" y="1082" type="line"/>
      <point x="176" y="0" type="line"/>
      <point x="327" y="0" type="line"/>
      <point x="327" y="624" type="line" smooth="yes"/>
      <point x="327" y="811"/>
      <point x="398" y="987"/>
      <point x="661" y="987" type="curve" smooth="yes"/>
      <point x="836" y="987"/>
      <point x="885" y="873"/>
      <point x="885" y="692" type="curve" smooth="yes"/>
      <point x="885" y="0" type="line"/>
      <point x="1037" y="0" type="line"/>
      <point x="1037" y="667" type="line" smooth="yes"/>
      <point x="1037" y="959"/>
      <point x="927" y="1102"/>
      <point x="684" y="1102" type="curve" smooth="yes"/>
    </contour>
    <contour>
      <point x="600" y="0" type="move" name="bot"/>
    </contour>
    <contour>
      <point x="672" y="1082" type="move" name="top"/>
    </contour>
  </outline>
</glyph>
<glyph name="o" format="1">
  <advance width="1222.800"/>
  <unicode hex="006F"/>
  <outline>
    <contour>
      <point x="303" y="1078"/>
      <point x="117" y="849"/>
      <point x="117" y="527" type="curve" smooth="yes"/>
      <point x="117" y="211"/>
      <point x="306" y="-19"/>
      <point x="612" y="-19" type="curve" smooth="yes"/>
      <point x="906" y="-19"/>
      <point x="1106" y="213"/>
      <point x="1106" y="527" type="curve" smooth="yes"/>
      <point x="1106" y="851"/>
      <point x="925" y="1078"/>
      <point x="612" y="1078" type="curve" smooth="yes"/>
    </contour>
    <contour>
      <point x="847" y="963"/>
      <point x="957" y="774"/>
      <point x="957" y="524" type="curve" smooth="yes"/>
      <point x="957" y="282"/>
      <point x="849" y="96"/>
      <point x="612" y="96" type="curve" smooth="yes"/>
      <point x="382" y="96"/>
      <point x="267" y="283"/>
      <point x="267" y="525" type="curve" smooth="yes"/>
      <point x="267" y="775"/>
      <point x="383" y="963"/>
      <point x="612" y="963" type="curve" smooth="yes"/>
    </contour>
    <contour>
      <point x="611" y="0" type="move" name="bot"/>
    </contour>
    <contour>
      <point x="673" y="0" type="move" name="ogonek"/>
    </contour>
    <contour>
      <point x="615" y="1057" type="move" name="top"/>
    </contour>
  </outline>
</glyph>
<glyph name="p" format="1">
  <advance width="1241.200"/>
  <unicode hex="0070"/>
  <outline>
    <contour>
      <point x="176" y="-470" type="line"/>
      <point x="327" y="-461" type="line"/>
      <point x="327" y="-73" type="line"/>
      <point x="316" y="256" type="line"/>
      <point x="277" y="225" type="line"/>
      <point x="328" y="109"/>
      <point x="456" y="-19"/>
      <point x="677" y="-19" type="curve" smooth="yes"/>
      <point x="961" y="-19"/>
      <point x="1124" y="204"/>
      <point x="1124" y="524" type="curve" smooth="yes"/>
      <point x="1124" y="854"/>
      <point x="972" y="1078"/>
      <point x="674" y="1078" type="curve" smooth="yes"/>
      <point x="488" y="1078"/>
      <point x="352" y="965"/>
      <point x="289" y="800" type="curve"/>
      <point x="321" y="796" type="line"/>
      <point x="300" y="1057" type="line"/>
      <point x="176" y="1057" type="line"/>
    </contour>
    <contour>
      <point x="655" y="96" type="curve" smooth="yes"/>
      <point x="477" y="96"/>
      <point x="389" y="192"/>
      <point x="324" y="295" type="curve"/>
      <point x="324" y="543" type="line"/>
      <point x="324" y="788"/>
      <point x="425" y="963"/>
      <point x="664" y="963" type="curve" smooth="yes"/>
      <point x="889" y="963"/>
      <point x="973" y="777"/>
      <point x="973" y="526" type="curve" smooth="yes"/>
      <point x="973" y="267"/>
      <point x="877" y="96"/>
    </contour>
    <contour>
      <point x="621" y="0" type="move" name="bot"/>
    </contour>
    <contour>
      <point x="677" y="1057" type="move" name="top"/>
    </contour>
  </outline>
</glyph>
<glyph name="q" format="1">
  <advance width="1276.400"/>
  <unicode hex="0071"/>
  <outline>
    <contour>
      <point x="288" y="1078"/>
      <point x="117" y="848"/>
      <point x="117" y="520" type="curve" smooth="yes"/>
      <point x="117" y="207"/>
      <point x="307" y="-19"/>
      <point x="584" y="-19" type="curve" smooth="yes"/>
      <point x="832" y="-19"/>
      <point x="945" y="130"/>
      <point x="996" y="284" type="curve"/>
      <point x="959" y="302" type="line"/>
      <point x="952" y="-84" type="line"/>
      <point x="952" y="-470" type="line"/>
      <point x="1102" y="-462" type="line"/>
      <point x="1102" y="1057" type="line"/>
      <point x="964" y="1057" type="line"/>
      <point x="941" y="814" type="line"/>
      <point x="972" y="820" type="line"/>
      <point x="911" y="968"/>
      <point x="792" y="1078"/>
      <point x="588" y="1078" type="curve" smooth="yes"/>
    </contour>
    <contour>
      <point x="854" y="963"/>
      <point x="947" y="795"/>
      <point x="947" y="558" type="curve" smooth="yes"/>
      <point x="949" y="272"/>
      <point x="869" y="96"/>
      <point x="607" y="96" type="curve" smooth="yes"/>
      <point x="378" y="96"/>
      <point x="267" y="272"/>
      <point x="267" y="530" type="curve" smooth="yes"/>
      <point x="267" y="779"/>
      <point x="372" y="963"/>
      <point x="608" y="963" type="curve" smooth="yes"/>
    </contour>
  </outline>
</glyph>
<glyph name="r" format="1">
  <advance width="800.200"/>
  <unicode hex="0072"/>
  <outline>
    <contour>
      <point x="514" y="1094"/>
      <point x="362" y="1017"/>
      <point x="282" y="794" type="curve"/>
      <point x="317" y="789" type="line"/>
      <point x="295" y="1082" type="line"/>
      <point x="176" y="1082" type="line"/>
      <point x="176" y="0" type="line"/>
      <point x="327" y="0" type="line"/>
      <point x="327" y="627" type="line" smooth="yes"/>
      <point x="327" y="814"/>
      <point x="465" y="974"/>
      <point x="651" y="974" type="curve" smooth="yes"/>
      <point x="672" y="974"/>
      <point x="699" y="971"/>
      <point x="723" y="966" type="curve"/>
      <point x="730" y="1089" type="line"/>
      <point x="708" y="1092"/>
      <point x="679" y="1094"/>
      <point x="649" y="1094" type="curve" smooth="yes"/>
    </contour>
    <contour>
      <point x="268" y="0" type="move" name="bot"/>
    </contour>
    <contour>
      <point x="414" y="1082" type="move" name="top"/>
    </contour>
  </outline>
</glyph>
<glyph name="s" format="1">
  <advance width="955"/>
  <unicode hex="0073"/>
  <outline>
    <contour>
      <point x="186" y="145" type="line"/>
      <point x="151" y="50" type="line"/>
      <point x="189" y="31"/>
      <point x="325" y="-19"/>
      <point x="480" y="-19" type="curve" smooth="yes"/>
      <point x="710" y="-19"/>
      <point x="847" y="90"/>
      <point x="847" y="281" type="curve" smooth="yes"/>
      <point x="847" y="445"/>
      <point x="787" y="534"/>
      <point x="549" y="605" type="curve" smooth="yes"/>
      <point x="445" y="636" type="line" smooth="yes"/>
      <point x="304" y="680"/>
      <point x="268" y="732"/>
      <point x="268" y="830" type="curve" smooth="yes"/>
      <point x="268" y="920"/>
      <point x="352" y="989"/>
      <point x="513" y="989" type="curve" smooth="yes"/>
      <point x="614" y="989"/>
      <point x="682" y="967"/>
      <point x="739" y="943" type="curve"/>
      <point x="761" y="943" type="line"/>
      <point x="796" y="1043" type="line"/>
      <point x="704" y="1084"/>
      <point x="624" y="1102"/>
      <point x="497" y="1102" type="curve" smooth="yes"/>
      <point x="268" y="1102"/>
      <point x="135" y="979"/>
      <point x="135" y="815" type="curve" smooth="yes"/>
      <point x="135" y="691"/>
      <point x="192" y="586"/>
      <point x="390" y="527" type="curve" smooth="yes"/>
      <point x="498" y="496" type="line" smooth="yes"/>
      <point x="683" y="440"/>
      <point x="717" y="388"/>
      <point x="716" y="275" type="curve" smooth="yes"/>
      <point x="715" y="162"/>
      <point x="644" y="93"/>
      <point x="485" y="93" type="curve" smooth="yes"/>
      <point x="362" y="93"/>
      <point x="269" y="122"/>
      <point x="213" y="145" type="curve"/>
    </contour>
    <contour>
      <point x="478" y="0" type="move" name="bot"/>
    </contour>
    <contour>
      <point x="511" y="1082" type="move" name="top"/>
    </contour>
  </outline>
</glyph>
<glyph name="t" format="1">
  <advance width="804"/>
  <unicode hex="0074"/>
  <outline>
    <contour>
      <point x="283" y="1348" type="line"/>
      <point x="236" y="1057" type="line"/>
      <point x="279" y="1082" type="line"/>
      <point x="85" y="1072" type="line"/>
      <point x="82" y="991" type="line"/>
      <point x="268" y="991" type="line"/>
      <point x="234" y="1025" type="line"/>
      <point x="234" y="305" type="line" smooth="yes"/>
      <point x="234" y="83"/>
      <point x="348" y="-12"/>
      <point x="532" y="-12" type="curve" smooth="yes"/>
      <point x="641" y="-12"/>
      <point x="709" y="8"/>
      <point x="709" y="8" type="curve"/>
      <point x="709" y="107" type="line"/>
      <point x="709" y="107"/>
      <point x="626" y="96"/>
      <point x="559" y="96" type="curve" smooth="yes"/>
      <point x="454" y="96"/>
      <point x="386" y="136"/>
      <point x="386" y="306" type="curve" smooth="yes"/>
      <point x="386" y="1024" type="line"/>
      <point x="352" y="990" type="line"/>
      <point x="703" y="990" type="line"/>
      <point x="703" y="1082" type="line"/>
      <point x="351" y="1082" type="line"/>
      <point x="386" y="1046" type="line"/>
      <point x="386" y="1353" type="line"/>
    </contour>
    <contour>
      <point x="386" y="1057" type="move" name="caron.alt"/>
    </contour>
    <contour>
      <point x="333" y="1326" type="move" name="top"/>
    </contour>
    <contour>
      <point x="384" y="699" type="move" name="mid"/>
    </contour>
    <contour>
      <point x="512" y="0" type="move" name="bot"/>
    </contour>
  </outline>
</glyph>
<glyph name="u" format="1">
  <advance width="1199.600"/>
  <unicode hex="0075"/>
  <outline>
    <contour>
      <point x="874" y="1082" type="line"/>
      <point x="874" y="224" type="line"/>
      <point x="896" y="296" type="line"/>
      <point x="877" y="243"/>
      <point x="751" y="95"/>
      <point x="558" y="95" type="curve" smooth="yes"/>
      <point x="380" y="95"/>
      <point x="316" y="208"/>
      <point x="316" y="390" type="curve" smooth="yes"/>
      <point x="316" y="1082" type="line"/>
      <point x="165" y="1082" type="line"/>
      <point x="165" y="414" type="line" smooth="yes"/>
      <point x="165" y="120"/>
      <point x="293" y="-20"/>
      <point x="536" y="-20" type="curve" smooth="yes"/>
      <point x="740" y="-20"/>
      <point x="846" y="53"/>
      <point x="918" y="203" type="curve"/>
      <point x="877" y="203" type="line"/>
      <point x="902" y="0" type="line"/>
      <point x="1026" y="0" type="line"/>
      <point x="1026" y="1082" type="line"/>
    </contour>
    <contour>
      <point x="600" y="0" type="move" name="bot"/>
    </contour>
    <contour>
      <point x="974" y="0" type="move" name="ogonek"/>
    </contour>
    <contour>
      <point x="609" y="1082" type="move" name="top"/>
    </contour>
  </outline>
</glyph>
<glyph name="v" format="1">
  <advance width="1071.400"/>
  <unicode hex="0076"/>
  <outline>
    <contour>
      <point x="461" y="0" type="line"/>
      <point x="616" y="0" type="line"/>
      <point x="1017" y="1082" type="line"/>
      <point x="864" y="1082" type="line"/>
      <point x="647" y="449" type="line"/>
      <point x="519" y="87" type="line"/>
      <point x="560" y="87" type="line"/>
      <point x="429.653" y="446.194" type="line"/>
      <point x="208" y="1082" type="line"/>
      <point x="54" y="1082" type="line"/>
    </contour>
  </outline>
</glyph>
<glyph name="w" format="1">
  <advance width="1557.600"/>
  <unicode hex="0077"/>
  <outline>
    <contour>
      <point x="1363" y="1082" type="line"/>
      <point x="1135" y="101" type="line"/>
      <point x="1171" y="101" type="line"/>
      <point x="863" y="1082" type="line"/>
      <point x="699" y="1082" type="line"/>
      <point x="410" y="101" type="line"/>
      <point x="444" y="101" type="line"/>
      <point x="199" y="1082" type="line"/>
      <point x="58" y="1082" type="line"/>
      <point x="353" y="0" type="line"/>
      <point x="498" y="0" type="line"/>
      <point x="797" y="1011" type="line"/>
      <point x="766" y="1011" type="line"/>
      <point x="1088" y="0" type="line"/>
      <point x="1219" y="0" type="line"/>
      <point x="1500" y="1082" type="line"/>
    </contour>
    <contour>
      <point x="779" y="0" type="move" name="bot"/>
    </contour>
    <contour>
      <point x="781" y="1082" type="move" name="top"/>
    </contour>
  </outline>
</glyph>
<glyph name="x" format="1">
  <advance width="1058"/>
  <unicode hex="0078"/>
  <outline>
    <contour>
      <point x="843" y="1082" type="line"/>
      <point x="520" y="616" type="line"/>
      <point x="467" y="581" type="line"/>
      <point x="43" y="0" type="line"/>
      <point x="211" y="0" type="line"/>
      <point x="550" y="470" type="line"/>
      <point x="606" y="513" type="line"/>
      <point x="1011" y="1082" type="line"/>
    </contour>
    <contour>
      <point x="71" y="1082" type="line"/>
      <point x="846" y="0" type="line"/>
      <point x="1014" y="0" type="line"/>
      <point x="240" y="1082" type="line"/>
    </contour>
  </outline>
</glyph>
<glyph name="y" format="1">
  <advance width="1085.400"/>
  <unicode hex="0079"/>
  <outline>
    <contour>
      <point x="1050" y="1082" type="line"/>
      <point x="898" y="1082" type="line"/>
      <point x="550" y="165" type="line"/>
      <point x="511" y="74" type="line"/>
      <point x="347" y="-367" type="line"/>
      <point x="475" y="-399" type="line"/>
    </contour>
    <contour>
      <point x="590" y="146" type="line"/>
      <point x="219" y="1082" type="line"/>
      <point x="65" y="1082" type="line"/>
      <point x="525" y="-35" type="line"/>
    </contour>
    <contour>
      <point x="543" y="0" type="move" name="bot"/>
    </contour>
    <contour>
      <point x="569" y="1082" type="move" name="top"/>
    </contour>
  </outline>
</glyph>
<glyph name="z" format="1">
  <advance width="929.400"/>
  <unicode hex="007A"/>
  <outline>
    <contour>
      <point x="139" y="1082" type="line"/>
      <point x="139" y="977" type="line"/>
      <point x="724" y="977" type="line"/>
      <point x="701" y="1031" type="line"/>
      <point x="118" y="99" type="line"/>
      <point x="118" y="0" type="line"/>
      <point x="826" y="0" type="line"/>
      <point x="826" y="107" type="line"/>
      <point x="214" y="107" type="line"/>
      <point x="237" y="49" type="line"/>
      <point x="818" y="979" type="line"/>
      <point x="818" y="1082" type="line"/>
    </contour>
    <contour>
      <point x="465" y="0" type="move" name="bot"/>
    </contour>
    <contour>
      <point x="509" y="1082" type="move" name="top"/>
    </contour>
  </outline>
</glyph>
<glyph name="braceleft" format="1">
  <advance width="781.400"/>
  <unicode hex="007B"/>
  <outline>
    <contour>
      <point x="632" y="-276" type="curve"/>
      <point x="632" y="-171" type="line"/>
      <point x="486" y="-169"/>
      <point x="440" y="-99"/>
      <point x="440" y="72" type="curve" smooth="yes"/>
      <point x="440" y="330" type="line" smooth="yes"/>
      <point x="440" y="489"/>
      <point x="394" y="565"/>
      <point x="261" y="603" type="curve"/>
      <point x="395" y="654"/>
      <point x="440" y="736"/>
      <point x="440" y="890" type="curve" smooth="yes"/>
      <point x="440" y="1147" type="line" smooth="yes"/>
      <point x="440" y="1326"/>
      <point x="489" y="1387"/>
      <point x="632" y="1389" type="curve"/>
      <point x="632" y="1498" type="line"/>
      <point x="427" y="1498"/>
      <point x="321" y="1384"/>
      <point x="321" y="1193" type="curve" smooth="yes"/>
      <point x="321" y="969" type="line" smooth="yes"/>
      <point x="321" y="797"/>
      <point x="299" y="664"/>
      <point x="110" y="663" type="curve"/>
      <point x="110" y="551" type="line"/>
      <point x="303" y="549"/>
      <point x="321" y="419"/>
      <point x="321" y="244" type="curve" smooth="yes"/>
      <point x="321" y="68" type="line" smooth="yes"/>
      <point x="321" y="-150"/>
      <point x="403" y="-276"/>
    </contour>
  </outline>
</glyph>
<glyph name="bar" format="1">
  <advance width="299.400"/>
  <unicode hex="007C"/>
  <outline>
    <contour>
      <point x="95" y="1553" type="line"/>
      <point x="95" y="-380" type="line"/>
      <point x="206" y="-380" type="line"/>
      <point x="206" y="1553" type="line"/>
    </contour>
  </outline>
</glyph>
<glyph name="braceright" format="1">
  <advance width="781.400"/>
  <unicode hex="007D"/>
  <outline>
    <contour>
      <point x="117" y="-276" type="line"/>
      <point x="323" y="-275"/>
      <point x="428" y="-163"/>
      <point x="428" y="28" type="curve" smooth="yes"/>
      <point x="428" y="250" type="line" smooth="yes"/>
      <point x="428" y="423"/>
      <point x="451" y="557"/>
      <point x="639" y="557" type="curve"/>
      <point x="639" y="668" type="line"/>
      <point x="445" y="671"/>
      <point x="428" y="800"/>
      <point x="428" y="975" type="curve" smooth="yes"/>
      <point x="428" y="1153" type="line" smooth="yes"/>
      <point x="428" y="1372"/>
      <point x="346" y="1498"/>
      <point x="117" y="1498" type="curve"/>
      <point x="117" y="1392" type="line"/>
      <point x="263" y="1390"/>
      <point x="309" y="1320"/>
      <point x="309" y="1148" type="curve" smooth="yes"/>
      <point x="309" y="891" type="line" smooth="yes"/>
      <point x="309" y="780"/>
      <point x="354" y="657"/>
      <point x="488" y="617" type="curve"/>
      <point x="347" y="553"/>
      <point x="309" y="453"/>
      <point x="309" y="331" type="curve" smooth="yes"/>
      <point x="309" y="73" type="line" smooth="yes"/>
      <point x="309" y="-105"/>
      <point x="260" y="-166"/>
      <point x="117" y="-168" type="curve"/>
    </contour>
  </outline>
</glyph>
<glyph name="asciitilde" format="1">
  <advance width="1191.800"/>
  <unicode hex="007E"/>
  <outline>
    <contour>
      <point x="831" y="627" type="curve" smooth="yes"/>
      <point x="770" y="627"/>
      <point x="688" y="668"/>
      <point x="592" y="709" type="curve" smooth="yes"/>
      <point x="489" y="755"/>
      <point x="437" y="776"/>
      <point x="358" y="776" type="curve" smooth="yes"/>
      <point x="233" y="776"/>
      <point x="145" y="692"/>
      <point x="101" y="583" type="curve"/>
      <point x="135" y="497" type="line"/>
      <point x="183" y="585"/>
      <point x="266" y="658"/>
      <point x="355" y="658" type="curve" smooth="yes"/>
      <point x="425" y="658"/>
      <point x="503" y="622"/>
      <point x="613" y="574" type="curve" smooth="yes"/>
      <point x="693" y="538"/>
      <point x="766" y="511"/>
      <point x="831" y="511" type="curve" smooth="yes"/>
      <point x="952" y="511"/>
      <point x="1023" y="583"/>
      <point x="1072" y="709" type="curve"/>
      <point x="1029" y="787" type="line"/>
      <point x="996" y="704"/>
      <point x="915" y="627"/>
    </contour>
  </outline>
</glyph>
<glyph name="sterling" format="1">
  <advance width="1161.200"/>
  <unicode hex="00A3"/>
  <outline>
    <contour>
      <point x="350" y="1463"/>
      <point x="304" y="1178"/>
      <point x="304" y="883" type="curve" smooth="yes"/>
      <point x="304" y="776" type="line"/>
      <point x="121" y="776" type="line"/>
      <point x="121" y="666" type="line"/>
      <point x="304" y="666" type="line"/>
      <point x="304" y="121" type="line"/>
      <point x="120" y="105" type="line"/>
      <point x="132" y="-7" type="line"/>
      <point x="1046" y="-7" type="line"/>
      <point x="1060" y="123" type="line"/>
      <point x="435" y="123" type="line"/>
      <point x="435" y="666" type="line"/>
      <point x="845" y="666" type="line"/>
      <point x="845" y="776" type="line"/>
      <point x="435" y="776" type="line"/>
      <point x="435" y="955" type="line" smooth="yes"/>
      <point x="435" y="1189"/>
      <point x="497" y="1347"/>
      <point x="708" y="1347" type="curve" smooth="yes"/>
      <point x="811" y="1347"/>
      <point x="899" y="1310"/>
      <point x="986" y="1242" type="curve"/>
      <point x="1047" y="1339" type="line"/>
      <point x="964" y="1409"/>
      <point x="853" y="1463"/>
      <point x="710" y="1463" type="curve" smooth="yes"/>
    </contour>
  </outline>
</glyph>
<glyph name="currency" format="1">
  <advance width="1318.600"/>
  <unicode hex="00A4"/>
  <outline>
    <contour>
      <point x="923" y="1016" type="line"/>
      <point x="851" y="1076"/>
      <point x="761" y="1111"/>
      <point x="661" y="1111" type="curve" smooth="yes"/>
      <point x="561" y="1111"/>
      <point x="469" y="1078"/>
      <point x="397" y="1017" type="curve"/>
      <point x="216" y="1187" type="line"/>
      <point x="157" y="1129" type="line"/>
      <point x="341" y="954" type="line"/>
      <point x="286" y="883"/>
      <point x="258" y="797"/>
      <point x="258" y="707" type="curve" smooth="yes"/>
      <point x="258" y="615"/>
      <point x="285" y="532"/>
      <point x="341" y="460" type="curve"/>
      <point x="158" y="287" type="line"/>
      <point x="216" y="227" type="line"/>
      <point x="397" y="397" type="line"/>
      <point x="469" y="336"/>
      <point x="560" y="304"/>
      <point x="661" y="304" type="curve" smooth="yes"/>
      <point x="761" y="304"/>
      <point x="851" y="337"/>
      <point x="923" y="397" type="curve"/>
      <point x="1105" y="226" type="line"/>
      <point x="1159" y="285" type="line"/>
      <point x="981" y="460" type="line"/>
      <point x="1035" y="529"/>
      <point x="1062" y="613"/>
      <point x="1062" y="707" type="curve" smooth="yes"/>
      <point x="1062" y="794"/>
      <point x="1035" y="879"/>
      <point x="980" y="954" type="curve"/>
      <point x="1160" y="1127" type="line"/>
      <point x="1105" y="1187" type="line"/>
    </contour>
    <contour>
      <point x="855" y="1029"/>
      <point x="975" y="880"/>
      <point x="975" y="707" type="curve" smooth="yes"/>
      <point x="975" y="534"/>
      <point x="856" y="385"/>
      <point x="661" y="385" type="curve" smooth="yes"/>
      <point x="466" y="385"/>
      <point x="347" y="533"/>
      <point x="347" y="707" type="curve" smooth="yes"/>
      <point x="347" y="880"/>
      <point x="466" y="1029"/>
      <point x="661" y="1029" type="curve" smooth="yes"/>
    </contour>
  </outline>
</glyph>
<glyph name="yen" format="1">
  <advance width="1232.200"/>
  <unicode hex="00A5"/>
  <outline>
    <contour>
      <point x="1029" y="1443" type="line"/>
      <point x="637" y="710" type="line"/>
      <point x="216" y="1443" type="line"/>
      <point x="62" y="1443" type="line"/>
      <point x="509" y="681" type="line"/>
      <point x="236" y="681" type="line"/>
      <point x="236" y="586" type="line"/>
      <point x="559" y="586" type="line"/>
      <point x="559" y="387" type="line"/>
      <point x="235" y="387" type="line"/>
      <point x="235" y="293" type="line"/>
      <point x="559" y="293" type="line"/>
      <point x="559" y="0" type="line"/>
      <point x="716" y="0" type="line"/>
      <point x="716" y="293" type="line"/>
      <point x="1030" y="293" type="line"/>
      <point x="1030" y="387" type="line"/>
      <point x="716" y="387" type="line"/>
      <point x="716" y="586" type="line"/>
      <point x="1028" y="586" type="line"/>
      <point x="1028" y="681" type="line"/>
      <point x="762" y="681" type="line"/>
      <point x="1183" y="1443" type="line"/>
    </contour>
  </outline>
</glyph>
<glyph name="brokenbar" format="1">
  <advance width="279.600"/>
  <unicode hex="00A6"/>
  <outline>
    <contour>
      <point x="85" y="477" type="line"/>
      <point x="85" y="-203" type="line"/>
      <point x="197" y="-203" type="line"/>
      <point x="197" y="477" type="line"/>
    </contour>
    <contour>
      <point x="85" y="1447" type="line"/>
      <point x="85" y="770" type="line"/>
      <point x="197" y="770" type="line"/>
      <point x="197" y="1447" type="line"/>
    </contour>
  </outline>
</glyph>
<glyph name="dieresis" format="1">
  <advance width="748.600"/>
  <unicode hex="00A8"/>
  <outline>
    <contour>
      <point x="189" y="1241" type="curve" smooth="yes"/>
      <point x="258" y="1241"/>
      <point x="286" y="1291"/>
      <point x="286" y="1339" type="curve" smooth="yes"/>
      <point x="286" y="1388"/>
      <point x="258" y="1438"/>
      <point x="189" y="1438" type="curve" smooth="yes"/>
      <point x="119" y="1438"/>
      <point x="91" y="1388"/>
      <point x="91" y="1339" type="curve" smooth="yes"/>
      <point x="91" y="1292"/>
      <point x="120" y="1241"/>
    </contour>
    <contour>
      <point x="567" y="1241" type="curve" smooth="yes"/>
      <point x="637" y="1241"/>
      <point x="664" y="1291"/>
      <point x="664" y="1339" type="curve" smooth="yes"/>
      <point x="664" y="1388"/>
      <point x="637" y="1438"/>
      <point x="567" y="1438" type="curve" smooth="yes"/>
      <point x="497" y="1438"/>
      <point x="469" y="1388"/>
      <point x="469" y="1339" type="curve" smooth="yes"/>
      <point x="469" y="1292"/>
      <point x="498" y="1241"/>
    </contour>
    <contour>
      <point x="374" y="1057" type="move" name="_top"/>
    </contour>
  </outline>
</glyph>
<glyph name="copyright" format="1">
  <advance width="1826.800"/>
  <unicode hex="00A9"/>
  <outline>
    <contour>
      <point x="128" y="749" type="curve" smooth="yes"/>
      <point x="128" y="228"/>
      <point x="524" y="-32"/>
      <point x="912" y="-32" type="curve" smooth="yes"/>
      <point x="1300" y="-32"/>
      <point x="1699" y="228"/>
      <point x="1699" y="749" type="curve" smooth="yes"/>
      <point x="1699" y="1270"/>
      <point x="1299" y="1531"/>
      <point x="911" y="1531" type="curve" smooth="yes"/>
      <point x="524" y="1531"/>
      <point x="128" y="1271"/>
    </contour>
    <contour>
      <point x="440" y="747" type="curve" smooth="yes"/>
      <point x="440" y="446"/>
      <point x="669" y="233"/>
      <point x="936" y="233" type="curve" smooth="yes"/>
      <point x="1036" y="233"/>
      <point x="1135" y="261"/>
      <point x="1226" y="319" type="curve"/>
      <point x="1193" y="402" type="line"/>
      <point x="1103" y="346"/>
      <point x="1021" y="328"/>
      <point x="938" y="328" type="curve" smooth="yes"/>
      <point x="729" y="328"/>
      <point x="560" y="488"/>
      <point x="560" y="753" type="curve" smooth="yes"/>
      <point x="560" y="993"/>
      <point x="728" y="1163"/>
      <point x="930" y="1163" type="curve" smooth="yes"/>
      <point x="1005" y="1163"/>
      <point x="1104" y="1138"/>
      <point x="1180" y="1079" type="curve"/>
      <point x="1222" y="1165" type="line"/>
      <point x="1130" y="1229"/>
      <point x="1028" y="1259"/>
      <point x="927" y="1259" type="curve" smooth="yes"/>
      <point x="663" y="1259"/>
      <point x="440" y="1041"/>
    </contour>
    <contour>
      <point x="1595" y="749" type="curve" smooth="yes"/>
      <point x="1595" y="287"/>
      <point x="1253" y="51"/>
      <point x="911" y="51" type="curve" smooth="yes"/>
      <point x="570" y="51"/>
      <point x="232" y="286"/>
      <point x="232" y="749" type="curve" smooth="yes"/>
      <point x="232" y="1212"/>
      <point x="570" y="1446"/>
      <point x="911" y="1446" type="curve" smooth="yes"/>
      <point x="1253" y="1446"/>
      <point x="1595" y="1211"/>
    </contour>
  </outline>
</glyph>
<glyph name="guillemotleft" format="1">
  <advance width="990.400"/>
  <unicode hex="00AB"/>
  <outline>
    <contour>
      <point x="391" y="151" type="line"/>
      <point x="495" y="178" type="line"/>
      <point x="239" y="542" type="line"/>
      <point x="503" y="902" type="line"/>
      <point x="395" y="929" type="line"/>
      <point x="110" y="539" type="line"/>
    </contour>
    <contour>
      <point x="735" y="151" type="line"/>
      <point x="839" y="178" type="line"/>
      <point x="582" y="542" type="line"/>
      <point x="846" y="902" type="line"/>
      <point x="738" y="929" type="line"/>
      <point x="454" y="539" type="line"/>
    </contour>
  </outline>
</glyph>
<glyph name="logicalnot" format="1">
  <advance width="1189.800"/>
  <unicode hex="00AC"/>
  <outline>
    <contour>
      <point x="104" y="788" type="line"/>
      <point x="104" y="675" type="line"/>
      <point x="948" y="675" type="line"/>
      <point x="948" y="255" type="line"/>
      <point x="1059" y="255" type="line"/>
      <point x="1059" y="788" type="line"/>
    </contour>
  </outline>
</glyph>
<glyph name="uni00AD" format="1">
  <advance width="1000.800"/>
  <unicode hex="00AD"/>
  <outline>
    <contour>
      <point x="121" y="182" type="line"/>
      <point x="887" y="182" type="line"/>
      <point x="887" y="303" type="line"/>
      <point x="121" y="303" type="line"/>
    </contour>
  </outline>
</glyph>
<glyph name="registered" format="1">
  <advance width="1825.200"/>
  <unicode hex="00AE"/>
  <outline>
    <contour>
      <point x="523" y="1531"/>
      <point x="128" y="1269"/>
      <point x="128" y="748" type="curve" smooth="yes"/>
      <point x="128" y="226"/>
      <point x="524" y="-33"/>
      <point x="911" y="-33" type="curve" smooth="yes"/>
      <point x="1299" y="-33"/>
      <point x="1698" y="226"/>
      <point x="1698" y="748" type="curve" smooth="yes"/>
      <point x="1698" y="1269"/>
      <point x="1299" y="1531"/>
      <point x="911" y="1531" type="curve" smooth="yes"/>
    </contour>
    <contour>
      <point x="1252" y="1446"/>
      <point x="1594" y="1210"/>
      <point x="1594" y="748" type="curve" smooth="yes"/>
      <point x="1594" y="285"/>
      <point x="1252" y="50"/>
      <point x="911" y="50" type="curve" smooth="yes"/>
      <point x="570" y="50"/>
      <point x="232" y="284"/>
      <point x="232" y="748" type="curve" smooth="yes"/>
      <point x="232" y="1211"/>
      <point x="570" y="1446"/>
      <point x="911" y="1446" type="curve" smooth="yes"/>
    </contour>
    <contour>
      <point x="607" y="1252" type="line"/>
      <point x="607" y="298" type="line"/>
      <point x="716" y="298" type="line"/>
      <point x="716" y="750" type="line"/>
      <point x="953" y="750" type="line"/>
      <point x="959" y="743"/>
      <point x="1173" y="298"/>
      <point x="1173" y="298" type="curve"/>
      <point x="1294" y="298" type="line"/>
      <point x="1294" y="298"/>
      <point x="1073" y="749"/>
      <point x="1062" y="764" type="curve"/>
      <point x="1196" y="776"/>
      <point x="1261" y="868"/>
      <point x="1261" y="1008" type="curve" smooth="yes"/>
      <point x="1261" y="1174"/>
      <point x="1184" y="1252"/>
      <point x="938" y="1252" type="curve" smooth="yes"/>
    </contour>
    <contour>
      <point x="1094" y="1157"/>
      <point x="1156" y="1135"/>
      <point x="1156" y="1003" type="curve" smooth="yes"/>
      <point x="1156" y="893"/>
      <point x="1114" y="844"/>
      <point x="966" y="844" type="curve" smooth="yes"/>
      <point x="716" y="844" type="line"/>
      <point x="716" y="1157" type="line"/>
      <point x="923" y="1157" type="line" smooth="yes"/>
    </contour>
  </outline>
</glyph>
<glyph name="macron" format="1">
  <advance width="1093.200"/>
  <unicode hex="00AF"/>
  <outline>
    <contour>
      <point x="247" y="1280" type="line"/>
      <point x="819" y="1280" type="line"/>
      <point x="819" y="1380" type="line"/>
      <point x="247" y="1380" type="line"/>
    </contour>
    <contour>
      <point x="541" y="1330" type="move" name="_mid"/>
    </contour>
    <contour>
      <point x="547" y="1057" type="move" name="_top"/>
    </contour>
  </outline>
</glyph>
<glyph name="degree" format="1">
  <advance width="817.800"/>
  <unicode hex="00B0"/>
  <outline>
    <contour>
      <point x="256" y="1478"/>
      <point x="110" y="1363"/>
      <point x="110" y="1192" type="curve" smooth="yes"/>
      <point x="110" y="1019"/>
      <point x="257" y="905"/>
      <point x="408" y="905" type="curve" smooth="yes"/>
      <point x="567" y="905"/>
      <point x="709" y="1026"/>
      <point x="709" y="1192" type="curve" smooth="yes"/>
      <point x="709" y="1363"/>
      <point x="563" y="1478"/>
      <point x="408" y="1478" type="curve" smooth="yes"/>
    </contour>
    <contour>
      <point x="520" y="1390"/>
      <point x="608" y="1309"/>
      <point x="608" y="1192" type="curve" smooth="yes"/>
      <point x="608" y="1076"/>
      <point x="520" y="993"/>
      <point x="408" y="993" type="curve" smooth="yes"/>
      <point x="298" y="993"/>
      <point x="210" y="1075"/>
      <point x="210" y="1192" type="curve" smooth="yes"/>
      <point x="210" y="1309"/>
      <point x="299" y="1390"/>
      <point x="409" y="1390" type="curve" smooth="yes"/>
    </contour>
  </outline>
</glyph>
<glyph name="plusminus" format="1">
  <advance width="1158.200"/>
  <unicode hex="00B1"/>
  <outline>
    <contour>
      <point x="512" y="1080" type="line"/>
      <point x="512" y="696" type="line"/>
      <point x="138" y="696" type="line"/>
      <point x="138" y="594" type="line"/>
      <point x="512" y="594" type="line"/>
      <point x="512" y="200" type="line"/>
      <point x="627" y="200" type="line"/>
      <point x="627" y="594" type="line"/>
      <point x="994" y="594" type="line"/>
      <point x="994" y="696" type="line"/>
      <point x="627" y="696" type="line"/>
      <point x="627" y="1080" type="line"/>
    </contour>
    <contour>
      <point x="113" y="105" type="line"/>
      <point x="113" y="0" type="line"/>
      <point x="1046" y="0" type="line"/>
      <point x="1046" y="105" type="line"/>
    </contour>
  </outline>
</glyph>
<glyph name="threesuperior" format="1">
  <advance width="814.400"/>
  <unicode hex="00B3"/>
  <outline>
    <contour>
      <point x="427" y="613" type="curve" smooth="yes"/>
      <point x="571" y="613"/>
      <point x="683" y="710"/>
      <point x="683" y="865" type="curve" smooth="yes"/>
      <point x="683" y="965"/>
      <point x="624" y="1044"/>
      <point x="512" y="1075" type="curve"/>
      <point x="618" y="1096"/>
      <point x="664" y="1174"/>
      <point x="664" y="1252" type="curve" smooth="yes"/>
      <point x="664" y="1407"/>
      <point x="544" y="1483"/>
      <point x="420" y="1483" type="curve" smooth="yes"/>
      <point x="335" y="1483"/>
      <point x="221" y="1449"/>
      <point x="166" y="1389" type="curve"/>
      <point x="215" y="1305" type="line"/>
      <point x="255" y="1346"/>
      <point x="350" y="1378"/>
      <point x="416" y="1378" type="curve" smooth="yes"/>
      <point x="487" y="1378"/>
      <point x="541" y="1337"/>
      <point x="541" y="1252" type="curve" smooth="yes"/>
      <point x="541" y="1166"/>
      <point x="457" y="1124"/>
      <point x="358" y="1124" type="curve" smooth="yes"/>
      <point x="289" y="1124" type="line"/>
      <point x="289" y="1016" type="line"/>
      <point x="361" y="1016" type="line" smooth="yes"/>
      <point x="472" y="1016"/>
      <point x="561" y="967"/>
      <point x="561" y="870" type="curve" smooth="yes"/>
      <point x="561" y="769"/>
      <point x="496" y="721"/>
      <point x="417" y="721" type="curve" smooth="yes"/>
      <point x="355" y="721"/>
      <point x="262" y="748"/>
      <point x="212" y="793" type="curve"/>
      <point x="165" y="701" type="line"/>
      <point x="224" y="638"/>
      <point x="346" y="613"/>
    </contour>
  </outline>
</glyph>
<glyph name="acute" format="1">
  <advance width="630.600"/>
  <unicode hex="00B4"/>
  <outline>
    <contour>
      <point x="104" y="1218" type="line"/>
      <point x="191" y="1218" type="line"/>
      <point x="481" y="1592" type="line"/>
      <point x="289" y="1592" type="line"/>
    </contour>
    <contour>
      <point x="183" y="1057" type="move" name="_top"/>
    </contour>
  </outline>
</glyph>
<glyph name="uni00B5" format="1">
  <advance width="1200"/>
  <unicode hex="00B5"/>
  <outline>
    <contour>
      <point x="165" y="610" type="line"/>
      <point x="165" y="-359" type="line"/>
      <point x="316" y="-359" type="line"/>
      <point x="316" y="610" type="line"/>
    </contour>
    <component base="u"/>
  </outline>
</glyph>
<glyph name="paragraph" format="1">
  <advance width="1096.400"/>
  <unicode hex="00B6"/>
  <outline>
    <contour>
      <point x="511" y="1534" type="line" smooth="yes"/>
      <point x="184" y="1534"/>
      <point x="109" y="1343"/>
      <point x="109" y="1202" type="curve" smooth="yes"/>
      <point x="109" y="1032"/>
      <point x="204" y="858"/>
      <point x="498" y="858" type="curve"/>
      <point x="498" y="-130" type="line"/>
      <point x="604" y="-130" type="line"/>
      <point x="604" y="1433" type="line"/>
      <point x="807" y="1433" type="line"/>
      <point x="807" y="-130" type="line"/>
      <point x="913" y="-130" type="line"/>
      <point x="913" y="1433" type="line"/>
      <point x="986" y="1433" type="line"/>
      <point x="986" y="1534" type="line"/>
    </contour>
  </outline>
</glyph>
<glyph name="periodcentered" format="1">
  <advance width="398"/>
  <unicode hex="00B7"/>
  <outline>
    <contour>
      <point x="114" y="547" type="line"/>
      <point x="278" y="547" type="line"/>
      <point x="278" y="707" type="line"/>
      <point x="114" y="707" type="line"/>
    </contour>
    <contour>
      <point x="194" y="624" type="move" name="_mid"/>
    </contour>
  </outline>
</glyph>
<glyph name="cedilla" format="1">
  <advance width="584.400"/>
  <unicode hex="00B8"/>
  <outline>
    <contour>
      <point x="288" y="-398" type="curve" smooth="yes"/>
      <point x="416" y="-398"/>
      <point x="537" y="-332"/>
      <point x="537" y="-202" type="curve" smooth="yes"/>
      <point x="537" y="-58.9694"/>
      <point x="380.03" y="-12.3636"/>
      <point x="253" y="-60" type="curve"/>
      <point x="254" y="-122" type="line"/>
      <point x="410" y="-84.1818"/>
      <point x="437" y="-144.732"/>
      <point x="437" y="-198" type="curve" smooth="yes"/>
      <point x="437" y="-317.7"/>
      <point x="258.826" y="-340.739"/>
      <point x="152" y="-275" type="curve"/>
      <point x="122" y="-358" type="line"/>
      <point x="172" y="-385"/>
      <point x="231" y="-398"/>
    </contour>
    <contour>
      <point x="257" y="0" type="move" name="_bot"/>
    </contour>
  </outline>
</glyph>
<glyph name="onesuperior" format="1">
  <advance width="823.800"/>
  <unicode hex="00B9"/>
  <outline>
    <contour>
      <point x="205" y="673" type="line"/>
      <point x="708" y="673" type="line"/>
      <point x="708" y="790" type="line"/>
      <point x="537" y="790" type="line"/>
      <point x="537" y="1475" type="line"/>
      <point x="410" y="1475" type="line"/>
      <point x="379" y="1444"/>
      <point x="241" y="1383"/>
      <point x="202" y="1374" type="curve"/>
      <point x="202" y="1247" type="line"/>
      <point x="246" y="1256"/>
      <point x="350" y="1296"/>
      <point x="386" y="1319" type="curve"/>
      <point x="386" y="790" type="line"/>
      <point x="205" y="790" type="line"/>
    </contour>
  </outline>
</glyph>
<glyph name="guillemotright" format="1">
  <advance width="984.200"/>
  <unicode hex="00BB"/>
  <outline>
    <contour>
      <point x="248" y="151" type="line"/>
      <point x="532" y="541" type="line"/>
      <point x="251" y="929" type="line"/>
      <point x="147" y="903" type="line"/>
      <point x="404" y="538" type="line"/>
      <point x="140" y="179" type="line"/>
    </contour>
    <contour>
      <point x="590" y="151" type="line"/>
      <point x="874" y="541" type="line"/>
      <point x="593" y="929" type="line"/>
      <point x="489" y="903" type="line"/>
      <point x="746" y="538" type="line"/>
      <point x="483" y="179" type="line"/>
    </contour>
  </outline>
</glyph>
<glyph name="onequarter" format="1">
  <advance width="1593.800"/>
  <unicode hex="00BC"/>
  <outline>
    <contour>
      <point x="88" y="621" type="line"/>
      <point x="515" y="621" type="line"/>
      <point x="515" y="722" type="line"/>
      <point x="375" y="722" type="line"/>
      <point x="375" y="1484" type="line"/>
      <point x="270" y="1484" type="line"/>
      <point x="239" y="1453"/>
      <point x="121" y="1397"/>
      <point x="80" y="1382" type="curve"/>
      <point x="80" y="1280" type="line"/>
      <point x="119" y="1293"/>
      <point x="209" y="1328"/>
      <point x="246" y="1352" type="curve"/>
      <point x="246" y="722" type="line"/>
      <point x="88" y="722" type="line"/>
    </contour>
    <contour>
      <point x="1326" y="3" type="line"/>
      <point x="1444" y="3" type="line"/>
      <point x="1444" y="191" type="line"/>
      <point x="1568" y="191" type="line"/>
      <point x="1560" y="288" type="line"/>
      <point x="1446" y="288" type="line"/>
      <point x="1446" y="838" type="line"/>
      <point x="1316" y="838" type="line"/>
      <point x="948" y="274" type="line"/>
      <point x="948" y="191" type="line"/>
      <point x="1326" y="191" type="line"/>
    </contour>
    <contour>
      <point x="342" y="0" type="line"/>
      <point x="463" y="0" type="line"/>
      <point x="1363" y="1488" type="line"/>
      <point x="1243" y="1488" type="line"/>
    </contour>
    <contour>
      <point x="1088" y="288" type="line"/>
      <point x="1325" y="662" type="line"/>
      <point x="1325" y="288" type="line"/>
    </contour>
  </outline>
</glyph>
<glyph name="onehalf" format="1">
  <advance width="1653"/>
  <unicode hex="00BD"/>
  <outline>
    <contour>
      <point x="132" y="623" type="line"/>
      <point x="503" y="623" type="line"/>
      <point x="503" y="727" type="line"/>
      <point x="380" y="727" type="line"/>
      <point x="380" y="1484" type="line"/>
      <point x="270" y="1484" type="line"/>
      <point x="239" y="1453"/>
      <point x="166" y="1407"/>
      <point x="118" y="1383" type="curve"/>
      <point x="118" y="1271" type="line"/>
      <point x="152" y="1289"/>
      <point x="214" y="1323"/>
      <point x="251" y="1347" type="curve"/>
      <point x="251" y="727" type="line"/>
      <point x="132" y="727" type="line"/>
    </contour>
    <contour>
      <point x="1022" y="-6" type="line"/>
      <point x="1541" y="-6" type="line"/>
      <point x="1544" y="100" type="line"/>
      <point x="1188" y="100" type="line"/>
      <point x="1392" y="284"/>
      <point x="1554" y="410"/>
      <point x="1554" y="598" type="curve" smooth="yes"/>
      <point x="1554" y="760"/>
      <point x="1420" y="845"/>
      <point x="1282" y="845" type="curve" smooth="yes"/>
      <point x="1167" y="845"/>
      <point x="1051" y="784"/>
      <point x="998" y="690" type="curve"/>
      <point x="1069" y="619" type="line" smooth="yes"/>
      <point x="1129" y="699"/>
      <point x="1208" y="735"/>
      <point x="1288" y="735" type="curve" smooth="yes"/>
      <point x="1361" y="735"/>
      <point x="1428" y="689"/>
      <point x="1428" y="590" type="curve" smooth="yes"/>
      <point x="1428" y="466"/>
      <point x="1214" y="288"/>
      <point x="1022" y="95" type="curve"/>
    </contour>
    <contour>
      <point x="309" y="4" type="line"/>
      <point x="431" y="4" type="line"/>
      <point x="1331" y="1488" type="line"/>
      <point x="1210" y="1488" type="line"/>
    </contour>
  </outline>
</glyph>
<glyph name="threequarters" format="1">
  <advance width="1634.800"/>
  <unicode hex="00BE"/>
  <outline>
    <contour>
      <point x="356" y="619" type="curve" smooth="yes"/>
      <point x="500" y="619"/>
      <point x="613" y="714"/>
      <point x="613" y="870" type="curve" smooth="yes"/>
      <point x="613" y="968"/>
      <point x="555" y="1047"/>
      <point x="443" y="1078" type="curve"/>
      <point x="552" y="1101"/>
      <point x="594" y="1186"/>
      <point x="594" y="1255" type="curve" smooth="yes"/>
      <point x="594" y="1407"/>
      <point x="473" y="1483"/>
      <point x="350" y="1483" type="curve" smooth="yes"/>
      <point x="265" y="1483"/>
      <point x="147" y="1449"/>
      <point x="92" y="1388" type="curve"/>
      <point x="144" y="1305" type="line"/>
      <point x="184" y="1346"/>
      <point x="279" y="1377"/>
      <point x="345" y="1377" type="curve" smooth="yes"/>
      <point x="416" y="1377"/>
      <point x="470" y="1338"/>
      <point x="470" y="1253" type="curve" smooth="yes"/>
      <point x="470" y="1168"/>
      <point x="386" y="1126"/>
      <point x="287" y="1126" type="curve" smooth="yes"/>
      <point x="218" y="1126" type="line"/>
      <point x="218" y="1017" type="line"/>
      <point x="291" y="1018" type="line" smooth="yes"/>
      <point x="402" y="1018"/>
      <point x="488" y="970"/>
      <point x="488" y="874" type="curve" smooth="yes"/>
      <point x="488" y="774"/>
      <point x="423" y="727"/>
      <point x="344" y="727" type="curve" smooth="yes"/>
      <point x="282" y="727"/>
      <point x="192" y="753"/>
      <point x="142" y="798" type="curve"/>
      <point x="94" y="706" type="line"/>
      <point x="153" y="643"/>
      <point x="275" y="619"/>
    </contour>
    <contour>
      <point x="1316" y="5" type="line"/>
      <point x="1433" y="5" type="line"/>
      <point x="1434" y="194" type="line"/>
      <point x="1558" y="194" type="line"/>
      <point x="1550" y="292" type="line"/>
      <point x="1435" y="292" type="line"/>
      <point x="1435" y="843" type="line"/>
      <point x="1306" y="843" type="line"/>
      <point x="938" y="276" type="line"/>
      <point x="938" y="194" type="line"/>
      <point x="1316" y="194" type="line"/>
    </contour>
    <contour>
      <point x="371" y="4" type="line"/>
      <point x="493" y="4" type="line"/>
      <point x="1392" y="1488" type="line"/>
      <point x="1272" y="1488" type="line"/>
    </contour>
    <contour>
      <point x="1078" y="292" type="line"/>
      <point x="1315" y="666" type="line"/>
      <point x="1315" y="292" type="line"/>
    </contour>
  </outline>
</glyph>
<glyph name="AE" format="1">
  <advance width="2032"/>
  <unicode hex="00C6"/>
  <outline>
    <contour>
      <point x="1069" y="1443" type="line"/>
      <point x="0" y="0" type="line"/>
      <point x="161" y="0" type="line"/>
      <point x="510" y="471" type="line"/>
      <point x="1088" y="471" type="line"/>
      <point x="1088" y="0" type="line"/>
      <point x="1944" y="0" type="line"/>
      <point x="1955" y="121" type="line"/>
      <point x="1235" y="121" type="line"/>
      <point x="1235" y="685" type="line"/>
      <point x="1881" y="685" type="line"/>
      <point x="1881" y="805" type="line"/>
      <point x="1235" y="805" type="line"/>
      <point x="1235" y="1324" type="line"/>
      <point x="1948" y="1324" type="line"/>
      <point x="1953" y="1443" type="line"/>
    </contour>
    <contour>
      <point x="1088" y="582" type="line"/>
      <point x="589" y="582" type="line"/>
      <point x="1088" y="1278" type="line"/>
    </contour>
  </outline>
</glyph>
<glyph name="multiply" format="1">
  <advance width="835"/>
  <unicode hex="00D7"/>
  <outline>
    <contour>
      <point x="85" y="853" type="line"/>
      <point x="346" y="575" type="line"/>
      <point x="75" y="286" type="line"/>
      <point x="150" y="211" type="line"/>
      <point x="420" y="495" type="line"/>
      <point x="688" y="212" type="line"/>
      <point x="759" y="288" type="line"/>
      <point x="495" y="574" type="line"/>
      <point x="756" y="849" type="line"/>
      <point x="677" y="927" type="line"/>
      <point x="420" y="653" type="line"/>
      <point x="161" y="932" type="line"/>
    </contour>
  </outline>
</glyph>
<glyph name="Oslash" format="1">
  <advance width="1639.400"/>
  <unicode hex="00D8"/>
  <outline>
    <contour>
      <point x="419" y="-195" type="line"/>
      <point x="510" y="-226" type="line"/>
      <point x="1236" y="1629" type="line"/>
      <point x="1139" y="1665" type="line"/>
    </contour>
    <component base="O"/>
  </outline>
</glyph>
<glyph name="Thorn" format="1">
  <advance width="1248"/>
  <unicode hex="00DE"/>
  <outline>
    <contour>
      <point x="209" y="1443" type="line"/>
      <point x="209" y="0" type="line"/>
      <point x="367" y="0" type="line"/>
      <point x="367" y="488" type="line"/>
      <point x="308" y="439" type="line"/>
      <point x="693" y="439" type="line" smooth="yes"/>
      <point x="1021" y="439"/>
      <point x="1156" y="578"/>
      <point x="1156" y="832" type="curve" smooth="yes"/>
      <point x="1156" y="1091"/>
      <point x="962" y="1186"/>
      <point x="697" y="1186" type="curve" smooth="yes"/>
      <point x="350" y="1186" type="line"/>
      <point x="367" y="1169" type="line"/>
      <point x="367" y="1443" type="line"/>
    </contour>
    <contour>
      <point x="308" y="1067" type="line"/>
      <point x="695" y="1067" type="line" smooth="yes"/>
      <point x="877" y="1067"/>
      <point x="998" y="1011"/>
      <point x="998" y="831" type="curve" smooth="yes"/>
      <point x="998" y="627"/>
      <point x="910" y="560"/>
      <point x="693" y="560" type="curve" smooth="yes"/>
      <point x="308" y="560" type="line"/>
      <point x="367" y="515" type="line"/>
      <point x="367" y="1123" type="line"/>
    </contour>
  </outline>
</glyph>
<glyph name="germandbls" format="1">
  <advance width="1176.400"/>
  <unicode hex="00DF"/>
  <outline>
    <contour>
      <point x="806" y="-20" type="curve" smooth="yes"/>
      <point x="1004" y="-20"/>
      <point x="1122" y="100"/>
      <point x="1122" y="284" type="curve" smooth="yes"/>
      <point x="1122" y="573"/>
      <point x="740" y="632"/>
      <point x="740" y="751" type="curve" smooth="yes"/>
      <point x="740" y="845"/>
      <point x="955" y="964"/>
      <point x="955" y="1169" type="curve" smooth="yes"/>
      <point x="955" y="1349"/>
      <point x="820" y="1476"/>
      <point x="596" y="1476" type="curve" smooth="yes"/>
      <point x="298" y="1476"/>
      <point x="182" y="1300"/>
      <point x="182" y="1013" type="curve" smooth="yes"/>
      <point x="182" y="0" type="line"/>
      <point x="332" y="0" type="line"/>
      <point x="332" y="1019" type="line" smooth="yes"/>
      <point x="332" y="1268"/>
      <point x="408" y="1362"/>
      <point x="599" y="1362" type="curve" smooth="yes"/>
      <point x="742" y="1362"/>
      <point x="810" y="1279"/>
      <point x="809" y="1168" type="curve" smooth="yes"/>
      <point x="808" y="962"/>
      <point x="603" y="901"/>
      <point x="603" y="738" type="curve" smooth="yes"/>
      <point x="603" y="544"/>
      <point x="977" y="493"/>
      <point x="977" y="278" type="curve" smooth="yes"/>
      <point x="977" y="191"/>
      <point x="927" y="101"/>
      <point x="792" y="101" type="curve" smooth="yes"/>
      <point x="677" y="101"/>
      <point x="575" y="140"/>
      <point x="517" y="171" type="curve"/>
      <point x="476" y="57" type="line"/>
      <point x="548" y="19"/>
      <point x="675" y="-20"/>
    </contour>
  </outline>
</glyph>
<glyph name="ae" format="1">
  <advance width="1748.600"/>
  <unicode hex="00E6"/>
  <outline>
    <contour>
      <point x="417" y="1080"/>
      <point x="258" y="1040"/>
      <point x="170" y="990" type="curve"/>
      <point x="217" y="886" type="line"/>
      <point x="305" y="933"/>
      <point x="447" y="967"/>
      <point x="556" y="967" type="curve" smooth="yes"/>
      <point x="729" y="966"/>
      <point x="792" y="877"/>
      <point x="792" y="723" type="curve" smooth="yes"/>
      <point x="792" y="604" type="line"/>
      <point x="620" y="604" type="line" smooth="yes"/>
      <point x="277" y="604"/>
      <point x="117" y="515"/>
      <point x="117" y="299" type="curve" smooth="yes"/>
      <point x="117" y="82"/>
      <point x="262" y="-15"/>
      <point x="439" y="-15" type="curve" smooth="yes"/>
      <point x="611" y="-15"/>
      <point x="809" y="65"/>
      <point x="896" y="167" type="curve"/>
      <point x="973" y="48"/>
      <point x="1096" y="-19"/>
      <point x="1266" y="-19" type="curve" smooth="yes"/>
      <point x="1424" y="-19"/>
      <point x="1526" y="18"/>
      <point x="1624" y="77" type="curve"/>
      <point x="1580" y="174" type="line"/>
      <point x="1469" y="117"/>
      <point x="1389" y="95"/>
      <point x="1282" y="95" type="curve" smooth="yes"/>
      <point x="1081" y="96"/>
      <point x="943" y="210"/>
      <point x="933" y="501" type="curve"/>
      <point x="1486" y="501"/>
      <point x="1638" y="575"/>
      <point x="1638" y="785" type="curve" smooth="yes"/>
      <point x="1638" y="934"/>
      <point x="1521" y="1079"/>
      <point x="1265" y="1079" type="curve" smooth="yes"/>
      <point x="1104" y="1079"/>
      <point x="931" y="989"/>
      <point x="889" y="824" type="curve"/>
      <point x="873" y="1008"/>
      <point x="732" y="1080"/>
      <point x="547" y="1080" type="curve" smooth="yes"/>
    </contour>
    <contour>
      <point x="794" y="425"/>
      <point x="809" y="331"/>
      <point x="837" y="263" type="curve"/>
      <point x="749" y="169"/>
      <point x="586" y="100"/>
      <point x="459" y="100" type="curve" smooth="yes"/>
      <point x="342" y="100"/>
      <point x="260" y="162"/>
      <point x="260" y="305" type="curve" smooth="yes"/>
      <point x="260" y="441"/>
      <point x="339" y="504"/>
      <point x="633" y="504" type="curve" smooth="yes"/>
      <point x="793" y="504" type="line"/>
    </contour>
    <contour>
      <point x="1437" y="971"/>
      <point x="1518" y="882"/>
      <point x="1518" y="780" type="curve" smooth="yes"/>
      <point x="1518" y="638"/>
      <point x="1346" y="600"/>
      <point x="936" y="600" type="curve"/>
      <point x="958" y="830"/>
      <point x="1084" y="971"/>
      <point x="1274" y="971" type="curve" smooth="yes"/>
    </contour>
  </outline>
</glyph>
<glyph name="eth" format="1">
  <advance width="1268.600"/>
  <unicode hex="00F0"/>
  <outline>
    <contour>
      <point x="263" y="1559" type="line"/>
      <point x="482" y="1358" type="line"/>
      <point x="250" y="1270" type="line"/>
      <point x="295" y="1173" type="line"/>
      <point x="553" y="1271" type="line"/>
      <point x="756" y="1076"/>
      <point x="856" y="940"/>
      <point x="911" y="834" type="curve"/>
      <point x="847" y="884"/>
      <point x="780" y="951"/>
      <point x="617" y="951" type="curve" smooth="yes"/>
      <point x="338" y="951"/>
      <point x="136" y="760"/>
      <point x="136" y="474" type="curve" smooth="yes"/>
      <point x="136" y="214"/>
      <point x="301" y="-27"/>
      <point x="628" y="-27" type="curve" smooth="yes"/>
      <point x="964" y="-27"/>
      <point x="1121" y="198"/>
      <point x="1121" y="479" type="curve" smooth="yes"/>
      <point x="1121" y="612"/>
      <point x="1088" y="752"/>
      <point x="1039" y="850" type="curve" smooth="yes"/>
      <point x="974" y="976"/>
      <point x="875" y="1106"/>
      <point x="671" y="1321" type="curve"/>
      <point x="932" y="1417" type="line"/>
      <point x="885" y="1514" type="line"/>
      <point x="593" y="1402" type="line"/>
      <point x="431" y="1559" type="line"/>
    </contour>
    <contour>
      <point x="986" y="484" type="curve" smooth="yes"/>
      <point x="986" y="244"/>
      <point x="868" y="85"/>
      <point x="635" y="85" type="curve" smooth="yes"/>
      <point x="395" y="85"/>
      <point x="283" y="278"/>
      <point x="283" y="473" type="curve" smooth="yes"/>
      <point x="283" y="681"/>
      <point x="410" y="841"/>
      <point x="628" y="841" type="curve" smooth="yes"/>
      <point x="859" y="841"/>
      <point x="986" y="665"/>
    </contour>
  </outline>
</glyph>
<glyph name="divide" format="1">
  <advance width="1108.600"/>
  <unicode hex="00F7"/>
  <outline>
    <contour>
      <point x="77" y="626" type="line"/>
      <point x="77" y="499" type="line"/>
      <point x="1015" y="499" type="line"/>
      <point x="1015" y="626" type="line"/>
    </contour>
    <contour>
      <point x="457" y="224" type="line"/>
      <point x="457" y="33" type="line"/>
      <point x="636" y="33" type="line"/>
      <point x="636" y="224" type="line"/>
    </contour>
    <contour>
      <point x="457" y="1064" type="line"/>
      <point x="457" y="876" type="line"/>
      <point x="637" y="876" type="line"/>
      <point x="637" y="1064" type="line"/>
    </contour>
  </outline>
</glyph>
<glyph name="oslash" format="1">
  <advance width="1214"/>
  <unicode hex="00F8"/>
  <outline>
    <contour>
      <point x="230" y="-115" type="line"/>
      <point x="293" y="-150" type="line"/>
      <point x="1020" y="1181" type="line"/>
      <point x="950" y="1216" type="line"/>
    </contour>
    <component base="o"/>
    <contour>
      <point x="648" y="1057" type="move" name="top"/>
    </contour>
  </outline>
</glyph>
<glyph name="thorn" format="1">
  <advance width="1247.400"/>
  <unicode hex="00FE"/>
  <outline>
    <contour>
      <point x="176" y="452" type="line"/>
      <point x="176" y="-345" type="line"/>
      <point x="329" y="-345" type="line"/>
      <point x="329" y="452" type="line"/>
    </contour>
    <component base="b"/>
  </outline>
</glyph>
<glyph name="Hbar" format="1">
  <advance width="1604.600"/>
  <unicode hex="0126"/>
  <outline>
    <contour>
      <point x="1232" y="1460" type="line"/>
      <point x="1232" y="1190" type="line"/>
      <point x="375" y="1190" type="line"/>
      <point x="375" y="1460" type="line"/>
      <point x="246" y="1460" type="line"/>
      <point x="246" y="1190" type="line"/>
      <point x="155" y="1190" type="line"/>
      <point x="155" y="1103" type="line"/>
      <point x="246" y="1103" type="line"/>
      <point x="246" y="0" type="line"/>
      <point x="375" y="0" type="line"/>
      <point x="375" y="688" type="line"/>
      <point x="1232" y="688" type="line"/>
      <point x="1232" y="0" type="line"/>
      <point x="1361" y="0" type="line"/>
      <point x="1361" y="1103" type="line"/>
      <point x="1452" y="1103" type="line"/>
      <point x="1452" y="1190" type="line"/>
      <point x="1361" y="1190" type="line"/>
      <point x="1361" y="1460" type="line"/>
    </contour>
    <contour>
      <point x="1232" y="817" type="line"/>
      <point x="375" y="817" type="line"/>
      <point x="375" y="1103" type="line"/>
      <point x="1232" y="1103" type="line"/>
    </contour>
  </outline>
</glyph>
<glyph name="dotlessi" format="1">
  <advance width="415"/>
  <unicode hex="0131"/>
  <outline>
    <contour>
      <point x="176" y="1057" type="line"/>
      <point x="176" y="0" type="line"/>
      <point x="327" y="0" type="line"/>
      <point x="327" y="1057" type="line"/>
    </contour>
    <contour>
      <point x="267" y="1057" type="move" name="top"/>
    </contour>
    <contour>
      <point x="247" y="0" type="move" name="ogonek"/>
    </contour>
  </outline>
</glyph>
<glyph name="kgreenlandic" format="1">
  <advance width="1095"/>
  <unicode hex="0138"/>
  <outline>
    <contour>
      <point x="873" y="1057" type="line"/>
      <point x="285" y="483" type="line"/>
      <point x="320" y="483" type="line"/>
      <point x="327" y="727" type="line"/>
      <point x="327" y="1057" type="line"/>
      <point x="176" y="1057" type="line"/>
      <point x="176" y="0" type="line"/>
      <point x="327" y="0" type="line"/>
      <point x="327" y="425" type="line"/>
      <point x="287" y="343" type="line"/>
      <point x="486" y="524" type="line"/>
      <point x="422" y="524" type="line"/>
      <point x="886" y="0" type="line"/>
      <point x="1065" y="0" type="line"/>
      <point x="527" y="604" type="line"/>
      <point x="527" y="536" type="line"/>
      <point x="1054" y="1057" type="line"/>
    </contour>
  </outline>
</glyph>
<glyph name="Eng" format="1">
  <advance width="1566"/>
  <unicode hex="014A"/>
  <outline>
    <contour>
      <point x="1215" y="773" type="line"/>
      <point x="1215" y="-2" type="line" smooth="yes"/>
      <point x="1215" y="-245"/>
      <point x="1095" y="-335"/>
      <point x="774" y="-335" type="curve"/>
      <point x="785" y="-453" type="line"/>
      <point x="1209" y="-453"/>
      <point x="1357" y="-294"/>
      <point x="1357" y="20" type="curve" smooth="yes"/>
      <point x="1357" y="773" type="line"/>
    </contour>
    <component base="N"/>
  </outline>
</glyph>
<glyph name="eng" format="1">
  <advance width="1181"/>
  <unicode hex="014B"/>
  <outline>
    <contour>
      <point x="885" y="273" type="line"/>
      <point x="885" y="-2" type="line" smooth="yes"/>
      <point x="885" y="-245"/>
      <point x="795" y="-335"/>
      <point x="474" y="-335" type="curve"/>
      <point x="485" y="-453" type="line"/>
      <point x="909" y="-453"/>
      <point x="1037" y="-294"/>
      <point x="1037" y="20" type="curve" smooth="yes"/>
      <point x="1037" y="273" type="line"/>
    </contour>
    <component base="n"/>
  </outline>
</glyph>
<glyph name="OE" format="1">
  <advance width="2308"/>
  <unicode hex="0152"/>
  <outline>
    <contour>
      <point x="386" y="1462"/>
      <point x="139" y="1164"/>
      <point x="139" y="712" type="curve" smooth="yes"/>
      <point x="139" y="273"/>
      <point x="375" y="-19"/>
      <point x="828" y="-19" type="curve" smooth="yes"/>
      <point x="1061" y="-19"/>
      <point x="1238" y="63"/>
      <point x="1353" y="214" type="curve"/>
      <point x="1353" y="0" type="line"/>
      <point x="2220" y="0" type="line"/>
      <point x="2231" y="121" type="line"/>
      <point x="1511" y="121" type="line"/>
      <point x="1511" y="685" type="line"/>
      <point x="2157" y="685" type="line"/>
      <point x="2157" y="805" type="line"/>
      <point x="1511" y="805" type="line"/>
      <point x="1511" y="1324" type="line"/>
      <point x="2224" y="1324" type="line"/>
      <point x="2229" y="1443" type="line"/>
      <point x="1353" y="1443" type="line"/>
      <point x="1353" y="1219" type="line"/>
      <point x="1239" y="1377"/>
      <point x="1058" y="1462"/>
      <point x="828" y="1462" type="curve" smooth="yes"/>
    </contour>
    <contour>
      <point x="1183" y="1337"/>
      <point x="1353" y="1081"/>
      <point x="1353" y="712" type="curve" smooth="yes"/>
      <point x="1353" y="357"/>
      <point x="1191" y="106"/>
      <point x="826" y="106" type="curve" smooth="yes"/>
      <point x="461" y="106"/>
      <point x="297" y="357"/>
      <point x="297" y="712" type="curve" smooth="yes"/>
      <point x="297" y="1083"/>
      <point x="473" y="1337"/>
      <point x="828" y="1337" type="curve" smooth="yes"/>
    </contour>
    <contour>
      <point x="825" y="0" type="move" name="bot"/>
    </contour>
    <contour>
      <point x="0" y="0" type="move" name="ogonek"/>
    </contour>
    <contour>
      <point x="825" y="1443" type="move" name="top"/>
    </contour>
  </outline>
</glyph>
<glyph name="oe" format="1">
  <advance width="1986"/>
  <unicode hex="0153"/>
  <outline>
    <contour>
      <point x="1266" y="1077"/>
      <point x="1119" y="967"/>
      <point x="1034" y="790" type="curve"/>
      <point x="974" y="961"/>
      <point x="826" y="1078"/>
      <point x="611" y="1078" type="curve" smooth="yes"/>
      <point x="303" y="1078"/>
      <point x="117" y="849"/>
      <point x="117" y="527" type="curve" smooth="yes"/>
      <point x="117" y="211"/>
      <point x="305" y="-19.0001"/>
      <point x="611" y="-19.0001" type="curve" smooth="yes"/>
      <point x="812" y="-19"/>
      <point x="965" y="99"/>
      <point x="1030" y="267" type="curve"/>
      <point x="1111" y="91"/>
      <point x="1258" y="-19"/>
      <point x="1465" y="-19.0001" type="curve" smooth="yes"/>
      <point x="1621" y="-19.0001"/>
      <point x="1742" y="15.9999"/>
      <point x="1843" y="73.9999" type="curve"/>
      <point x="1807" y="175" type="line"/>
      <point x="1699" y="122"/>
      <point x="1600" y="95.9999"/>
      <point x="1483" y="95.9999" type="curve" smooth="yes"/>
      <point x="1281" y="96"/>
      <point x="1116" y="215"/>
      <point x="1105" y="507" type="curve"/>
      <point x="1862" y="507" type="line"/>
      <point x="1862" y="507"/>
      <point x="1868" y="559"/>
      <point x="1868" y="587" type="curve" smooth="yes"/>
      <point x="1868" y="883"/>
      <point x="1717" y="1078"/>
      <point x="1452" y="1078" type="curve" smooth="yes"/>
    </contour>
    <contour>
      <point x="846" y="963"/>
      <point x="956" y="774"/>
      <point x="956" y="524" type="curve" smooth="yes"/>
      <point x="956" y="282"/>
      <point x="849" y="95.9999"/>
      <point x="611" y="95.9999" type="curve" smooth="yes"/>
      <point x="382" y="95.9999"/>
      <point x="267" y="283"/>
      <point x="267" y="525" type="curve" smooth="yes"/>
      <point x="267" y="775"/>
      <point x="383" y="963"/>
      <point x="611" y="963" type="curve" smooth="yes"/>
    </contour>
    <contour>
      <point x="1638" y="965"/>
      <point x="1726" y="841"/>
      <point x="1735" y="606" type="curve"/>
      <point x="1110" y="606" type="line"/>
      <point x="1131" y="822"/>
      <point x="1270" y="965"/>
      <point x="1458" y="965" type="curve" smooth="yes"/>
    </contour>
    <contour>
      <point x="611" y="0" type="move" name="bot"/>
    </contour>
    <contour>
      <point x="615" y="1057" type="move" name="top"/>
    </contour>
    <contour>
      <point x="673" y="0" type="move" name="ogonek"/>
    </contour>
  </outline>
</glyph>
<glyph name="florin" format="1">
  <advance width="1079"/>
  <unicode hex="0192"/>
  <outline>
    <contour>
      <point x="715" y="1534"/>
      <point x="631" y="1404"/>
      <point x="598" y="1241" type="curve" smooth="yes"/>
      <point x="567" y="1082" type="line"/>
      <point x="405" y="1082" type="line"/>
      <point x="388" y="998" type="line"/>
      <point x="553" y="998" type="line"/>
      <point x="339" y="123" type="line" smooth="yes"/>
      <point x="297" y="-48"/>
      <point x="329" y="-214"/>
      <point x="62" y="-161" type="curve"/>
      <point x="44" y="-245" type="line"/>
      <point x="242" y="-302"/>
      <point x="430" y="-163"/>
      <point x="499" y="122" type="curve" smooth="yes"/>
      <point x="712" y="998" type="line"/>
      <point x="925" y="998" type="line"/>
      <point x="942" y="1082" type="line"/>
      <point x="730" y="1082" type="line"/>
      <point x="763" y="1254" type="line" smooth="yes"/>
      <point x="783" y="1354"/>
      <point x="805" y="1452"/>
      <point x="903" y="1452" type="curve" smooth="yes"/>
      <point x="955" y="1452"/>
      <point x="981" y="1402"/>
      <point x="981" y="1301" type="curve"/>
      <point x="1114" y="1301" type="line"/>
      <point x="1114" y="1487"/>
      <point x="1012" y="1534"/>
      <point x="896" y="1534" type="curve" smooth="yes"/>
    </contour>
  </outline>
</glyph>
<glyph name="dotlessj" format="1">
  <advance width="440.400"/>
  <unicode hex="0237"/>
  <outline>
    <contour>
      <point x="144" y="1057" type="line"/>
      <point x="144" y="-109" type="line" smooth="yes"/>
      <point x="144" y="-274"/>
      <point x="158" y="-333"/>
      <point x="-29" y="-333" type="curve" smooth="yes"/>
      <point x="-88" y="-333" type="line"/>
      <point x="-55" y="-463" type="line"/>
      <point x="1" y="-463" type="line" smooth="yes"/>
      <point x="244" y="-463"/>
      <point x="295" y="-390"/>
      <point x="295" y="-144" type="curve" smooth="yes"/>
      <point x="295" y="1057" type="line"/>
    </contour>
    <contour>
      <point x="218" y="1057" type="move" name="top"/>
    </contour>
  </outline>
</glyph>
<glyph name="apostrophemod" format="1">
  <advance width="538"/>
  <unicode hex="02BC"/>
  <outline>
    <contour>
      <point x="142" y="1114" type="line"/>
      <point x="237" y="1114" type="line"/>
      <point x="399" y="1553" type="line"/>
      <point x="272" y="1553" type="line"/>
    </contour>
  </outline>
</glyph>
<glyph name="circumflex" format="1">
  <advance width="789.600"/>
  <unicode hex="02C6"/>
  <outline>
    <contour>
      <point x="124" y="1246" type="line"/>
      <point x="224" y="1246" type="line"/>
      <point x="384" y="1530" type="line"/>
      <point x="535" y="1246" type="line"/>
      <point x="636" y="1246" type="line"/>
      <point x="479" y="1617" type="line"/>
      <point x="295" y="1617" type="line"/>
    </contour>
    <contour>
      <point x="388" y="1057" type="move" name="_top"/>
    </contour>
  </outline>
</glyph>
<glyph name="caron" format="1">
  <advance width="789.200"/>
  <unicode hex="02C7"/>
  <outline>
    <contour>
      <point x="281" y="1252" type="line"/>
      <point x="464" y="1252" type="line"/>
      <point x="638" y="1617" type="line"/>
      <point x="533" y="1617" type="line"/>
      <point x="372" y="1338" type="line"/>
      <point x="226" y="1617" type="line"/>
      <point x="122" y="1617" type="line"/>
    </contour>
    <contour>
      <point x="377" y="1057" type="move" name="_top"/>
    </contour>
  </outline>
</glyph>
<glyph name="uni02C9" format="1">
  <advance width="600"/>
  <unicode hex="02C9"/>
  <outline>
    <contour>
      <point x="15" y="1275" type="line"/>
      <point x="587" y="1275" type="line"/>
      <point x="587" y="1387" type="line"/>
      <point x="15" y="1387" type="line"/>
    </contour>
    <contour>
      <point x="307" y="1082" type="move" name="_top"/>
    </contour>
  </outline>
</glyph>
<glyph name="breve" format="1">
  <advance width="752.600"/>
  <unicode hex="02D8"/>
  <outline>
    <contour>
      <point x="373" y="1218" type="curve" smooth="yes"/>
      <point x="493" y="1218"/>
      <point x="600" y="1283"/>
      <point x="600" y="1447" type="curve"/>
      <point x="510" y="1447" type="line"/>
      <point x="510" y="1346"/>
      <point x="439" y="1306"/>
      <point x="373" y="1306" type="curve" smooth="yes"/>
      <point x="306" y="1306"/>
      <point x="241" y="1346"/>
      <point x="241" y="1447" type="curve"/>
      <point x="149" y="1447" type="line"/>
      <point x="149" y="1282"/>
      <point x="253" y="1218"/>
    </contour>
    <contour>
      <point x="384" y="1057" type="move" name="_top"/>
    </contour>
  </outline>
</glyph>
<glyph name="dotaccent" format="1">
  <advance width="350"/>
  <unicode hex="02D9"/>
  <outline>
    <contour>
      <point x="283" y="1397" type="curve" smooth="yes"/>
      <point x="283" y="1469"/>
      <point x="254" y="1507"/>
      <point x="180" y="1507" type="curve" smooth="yes"/>
      <point x="105" y="1507"/>
      <point x="76" y="1469"/>
      <point x="76" y="1397" type="curve" smooth="yes"/>
      <point x="76" y="1325"/>
      <point x="105" y="1287"/>
      <point x="180" y="1287" type="curve" smooth="yes"/>
      <point x="254" y="1287"/>
      <point x="283" y="1325"/>
    </contour>
    <contour>
      <point x="182" y="1057" type="move" name="_top"/>
    </contour>
  </outline>
</glyph>
<glyph name="ring" format="1">
  <advance width="606"/>
  <unicode hex="02DA"/>
  <outline>
    <contour>
      <point x="301" y="1262" type="curve" smooth="yes"/>
      <point x="245" y="1262"/>
      <point x="204" y="1307"/>
      <point x="204" y="1362" type="curve" smooth="yes"/>
      <point x="204" y="1416"/>
      <point x="246" y="1461"/>
      <point x="301" y="1461" type="curve" smooth="yes"/>
      <point x="357" y="1461"/>
      <point x="399" y="1416"/>
      <point x="399" y="1362" type="curve" smooth="yes"/>
      <point x="399" y="1307"/>
      <point x="357" y="1262"/>
    </contour>
    <contour>
      <point x="301" y="1190" type="curve" smooth="yes"/>
      <point x="403" y="1190"/>
      <point x="480" y="1266"/>
      <point x="480" y="1362" type="curve" smooth="yes"/>
      <point x="480" y="1459"/>
      <point x="404" y="1535"/>
      <point x="301" y="1535" type="curve" smooth="yes"/>
      <point x="199" y="1535"/>
      <point x="122" y="1459"/>
      <point x="122" y="1362" type="curve" smooth="yes"/>
      <point x="122" y="1266"/>
      <point x="199" y="1190"/>
    </contour>
    <contour>
      <point x="303" y="1057" type="move" name="_top"/>
    </contour>
  </outline>
</glyph>
<glyph name="ogonek" format="1">
  <advance width="580"/>
  <unicode hex="02DB"/>
  <outline>
    <contour>
      <point x="304" y="-413" type="curve" smooth="yes"/>
      <point x="352" y="-413"/>
      <point x="414" y="-398"/>
      <point x="443" y="-384" type="curve"/>
      <point x="441" y="-290" type="line" smooth="yes"/>
      <point x="421" y="-299"/>
      <point x="378" y="-312"/>
      <point x="337" y="-312" type="curve" smooth="yes"/>
      <point x="291" y="-312"/>
      <point x="252" y="-291"/>
      <point x="252" y="-232" type="curve" smooth="yes"/>
      <point x="252" y="-154"/>
      <point x="346" y="-40"/>
      <point x="403" y="0" type="curve"/>
      <point x="327" y="0" type="line"/>
      <point x="219" y="-41"/>
      <point x="118" y="-162"/>
      <point x="118" y="-271" type="curve" smooth="yes"/>
      <point x="118" y="-354"/>
      <point x="177" y="-413"/>
    </contour>
    <contour>
      <point x="387" y="0" type="move" name="_ogonek"/>
    </contour>
  </outline>
</glyph>
<glyph name="tilde" format="1">
  <advance width="901.200"/>
  <unicode hex="02DC"/>
  <outline>
    <contour>
      <point x="143" y="1273" type="curve"/>
      <point x="220" y="1273" type="line"/>
      <point x="226" y="1342"/>
      <point x="251" y="1371"/>
      <point x="287" y="1371" type="curve" smooth="yes"/>
      <point x="360" y="1371"/>
      <point x="482" y="1273"/>
      <point x="585" y="1273" type="curve" smooth="yes"/>
      <point x="658" y="1273"/>
      <point x="719" y="1323"/>
      <point x="719" y="1465" type="curve"/>
      <point x="639" y="1465" type="line"/>
      <point x="633" y="1399"/>
      <point x="611" y="1378"/>
      <point x="580" y="1378" type="curve" smooth="yes"/>
      <point x="516" y="1378"/>
      <point x="410" y="1466"/>
      <point x="294" y="1466" type="curve" smooth="yes"/>
      <point x="209" y="1466"/>
      <point x="143" y="1414"/>
    </contour>
    <contour>
      <point x="442" y="1057" type="move" name="_top"/>
    </contour>
  </outline>
</glyph>
<glyph name="hungarumlaut" format="1">
  <advance width="729.400"/>
  <unicode hex="02DD"/>
  <outline>
    <contour>
      <point x="112" y="1257" type="line"/>
      <point x="187" y="1257" type="line"/>
      <point x="393" y="1570" type="line"/>
      <point x="248" y="1570" type="line"/>
    </contour>
    <contour>
      <point x="340" y="1257" type="line"/>
      <point x="417" y="1257" type="line"/>
      <point x="666" y="1570" type="line"/>
      <point x="511" y="1570" type="line"/>
    </contour>
    <contour>
      <point x="365" y="1057" type="move" name="_top"/>
    </contour>
  </outline>
</glyph>
<glyph name="uni0307" format="1">
  <advance width="323"/>
  <unicode hex="0307"/>
  <outline>
    <contour>
      <point x="87" y="1290" type="line"/>
      <point x="230" y="1290" type="line"/>
      <point x="230" y="1470" type="line"/>
      <point x="87" y="1470" type="line"/>
    </contour>
  </outline>
</glyph>
<glyph name="dblgravecmb" format="1">
  <advance width="695"/>
  <unicode hex="030F"/>
  <outline>
    <contour>
      <point x="304" y="1205" type="line"/>
      <point x="373" y="1205" type="line"/>
      <point x="221" y="1507" type="line"/>
      <point x="78" y="1507" type="line"/>
    </contour>
    <contour>
      <point x="506" y="1205" type="line"/>
      <point x="571" y="1205" type="line"/>
      <point x="462" y="1507" type="line"/>
      <point x="331" y="1507" type="line"/>
    </contour>
    <contour>
      <point x="455" y="1057" type="move" name="_top"/>
    </contour>
  </outline>
</glyph>
<glyph name="breveinvertedcomb" format="1">
  <advance width="693.800"/>
  <unicode hex="0311"/>
  <outline>
    <contour>
      <point x="121" y="1197" type="curve"/>
      <point x="211" y="1197" type="line"/>
      <point x="211" y="1300"/>
      <point x="268" y="1348"/>
      <point x="345" y="1348" type="curve" smooth="yes"/>
      <point x="421" y="1348"/>
      <point x="481" y="1299"/>
      <point x="481" y="1197" type="curve"/>
      <point x="572" y="1197" type="line"/>
      <point x="572" y="1366"/>
      <point x="455" y="1434"/>
      <point x="343" y="1434" type="curve" smooth="yes"/>
      <point x="233" y="1434"/>
      <point x="121" y="1366"/>
    </contour>
    <contour>
      <point x="357" y="1057" type="move" name="_top"/>
    </contour>
  </outline>
</glyph>
<glyph name="commaturnedabovecomb" format="1">
  <advance width="600"/>
  <unicode hex="0312"/>
  <outline>
    <contour>
      <point x="222" y="1355" type="line"/>
      <point x="376" y="1355" type="line"/>
      <point x="376" y="1438"/>
      <point x="409" y="1847"/>
      <point x="409" y="1847" type="curve" smooth="yes"/>
      <point x="324" y="1847" type="line" smooth="yes"/>
      <point x="324" y="1847"/>
      <point x="223" y="1424"/>
      <point x="223" y="1392" type="curve" smooth="yes"/>
    </contour>
    <contour>
      <point x="306" y="1057" type="move" name="_top"/>
    </contour>
  </outline>
</glyph>
<glyph name="commaaccent" format="1">
  <advance width="297"/>
  <unicode hex="0326"/>
  <outline>
    <contour>
      <point x="61" y="-574" type="line"/>
      <point x="179" y="-574" type="line"/>
      <point x="285" y="-146" type="line"/>
      <point x="132" y="-146" type="line"/>
    </contour>
    <contour>
      <point x="209" y="0" type="move" name="_bot"/>
    </contour>
  </outline>
</glyph>
<glyph name="pi" format="1">
  <advance width="1402"/>
  <unicode hex="03C0"/>
  <outline>
    <contour>
      <point x="1078" y="-7" type="curve" smooth="yes"/>
      <point x="1129" y="-7"/>
      <point x="1222" y="12"/>
      <point x="1266" y="44" type="curve"/>
      <point x="1266" y="93" type="line"/>
      <point x="1239" y="82"/>
      <point x="1199" y="72"/>
      <point x="1158" y="72" type="curve" smooth="yes"/>
      <point x="1047" y="72"/>
      <point x="1003" y="153"/>
      <point x="1003" y="344" type="curve" smooth="yes"/>
      <point x="1003" y="489"/>
      <point x="1028" y="663"/>
      <point x="1070" y="947" type="curve"/>
      <point x="1280" y="947" type="line"/>
      <point x="1280" y="1057" type="line"/>
      <point x="473" y="1057" type="line" smooth="yes"/>
      <point x="257" y="1057"/>
      <point x="174" y="979"/>
      <point x="174" y="761" type="curve"/>
      <point x="267" y="761" type="line"/>
      <point x="279" y="928"/>
      <point x="309" y="947"/>
      <point x="411" y="947" type="curve" smooth="yes"/>
      <point x="513" y="947" type="line"/>
      <point x="414" y="341" type="line" smooth="yes"/>
      <point x="378" y="123"/>
      <point x="260" y="62"/>
      <point x="172" y="62" type="curve"/>
      <point x="172" y="4" type="line"/>
      <point x="440" y="4"/>
      <point x="505" y="85"/>
      <point x="534" y="305" type="curve" smooth="yes"/>
      <point x="619" y="947" type="line"/>
      <point x="952" y="947" type="line"/>
      <point x="903" y="624"/>
      <point x="860" y="430"/>
      <point x="860" y="274" type="curve" smooth="yes"/>
      <point x="860" y="72"/>
      <point x="942" y="-7"/>
    </contour>
  </outline>
</glyph>
<glyph name="endash" format="1">
  <advance width="1254.600"/>
  <unicode hex="2013"/>
  <outline>
    <contour>
      <point x="125" y="533" type="line"/>
      <point x="1124" y="533" type="line"/>
      <point x="1124" y="658" type="line"/>
      <point x="125" y="658" type="line"/>
    </contour>
  </outline>
</glyph>
<glyph name="emdash" format="1">
  <advance width="2422.800"/>
  <unicode hex="2014"/>
  <outline>
    <contour>
      <point x="148" y="533" type="line"/>
      <point x="2282" y="533" type="line"/>
      <point x="2282" y="658" type="line"/>
      <point x="148" y="658" type="line"/>
    </contour>
  </outline>
</glyph>
<glyph name="quoteleft" format="1">
  <advance width="475.200"/>
  <unicode hex="2018"/>
  <outline>
    <contour>
      <point x="202" y="1014" type="line"/>
      <point x="323" y="1014" type="line"/>
      <point x="322" y="1443" type="line"/>
      <point x="225" y="1443" type="line"/>
    </contour>
  </outline>
</glyph>
<glyph name="quoteright" format="1">
  <advance width="467"/>
  <unicode hex="2019"/>
  <outline>
    <contour>
      <point x="141" y="1014" type="line"/>
      <point x="227" y="1014" type="line"/>
      <point x="346" y="1443" type="line"/>
      <point x="225" y="1443" type="line"/>
    </contour>
  </outline>
</glyph>
<glyph name="quotesinglbase" format="1">
  <advance width="429.600"/>
  <unicode hex="201A"/>
  <outline>
    <contour>
      <point x="96" y="-249" type="line"/>
      <point x="184" y="-249" type="line"/>
      <point x="304" y="199" type="line"/>
      <point x="179" y="199" type="line"/>
    </contour>
  </outline>
</glyph>
<glyph name="quotedblleft" format="1">
  <advance width="778.600"/>
  <unicode hex="201C"/>
  <outline>
    <contour>
      <point x="139" y="974" type="line"/>
      <point x="288" y="1107" type="line"/>
      <point x="351" y="1677" type="line"/>
      <point x="232" y="1545" type="line"/>
    </contour>
    <contour>
      <point x="442" y="974" type="line"/>
      <point x="599" y="1107" type="line"/>
      <point x="653" y="1677" type="line"/>
      <point x="539" y="1545" type="line"/>
    </contour>
  </outline>
</glyph>
<glyph name="quotedblright" format="1">
  <advance width="660.200"/>
  <unicode hex="201D"/>
  <outline>
    <contour>
      <point x="83" y="1118" type="line"/>
      <point x="169" y="1118" type="line"/>
      <point x="294" y="1541" type="line"/>
      <point x="167" y="1541" type="line"/>
    </contour>
    <contour>
      <point x="370" y="1122" type="line"/>
      <point x="460" y="1122" type="line"/>
      <point x="583" y="1541" type="line"/>
      <point x="453" y="1541" type="line"/>
    </contour>
  </outline>
</glyph>
<glyph name="quotedblbase" format="1">
  <advance width="684"/>
  <unicode hex="201E"/>
  <outline>
    <contour>
      <point x="123" y="-249" type="line"/>
      <point x="209" y="-249" type="line"/>
      <point x="323" y="199" type="line"/>
      <point x="201" y="199" type="line"/>
    </contour>
    <contour>
      <point x="376" y="-249" type="line"/>
      <point x="460" y="-249" type="line"/>
      <point x="579" y="199" type="line"/>
      <point x="453" y="199" type="line"/>
    </contour>
  </outline>
</glyph>
<glyph name="dagger" format="1">
  <advance width="919.200"/>
  <unicode hex="2020"/>
  <outline>
    <contour>
      <point x="407" y="1445" type="line"/>
      <point x="407" y="1065" type="line"/>
      <point x="121" y="1065" type="line"/>
      <point x="121" y="979" type="line"/>
      <point x="407" y="979" type="line"/>
      <point x="407" y="120" type="line"/>
      <point x="504" y="120" type="line"/>
      <point x="504" y="979" type="line"/>
      <point x="791" y="979" type="line"/>
      <point x="791" y="1065" type="line"/>
      <point x="501" y="1065" type="line"/>
      <point x="501" y="1445" type="line"/>
    </contour>
  </outline>
</glyph>
<glyph name="daggerdbl" format="1">
  <advance width="994.800"/>
  <unicode hex="2021"/>
  <outline>
    <contour>
      <point x="411" y="1444" type="line"/>
      <point x="411" y="1062" type="line"/>
      <point x="132" y="1062" type="line"/>
      <point x="132" y="977" type="line"/>
      <point x="411" y="977" type="line"/>
      <point x="411" y="537" type="line"/>
      <point x="132" y="537" type="line"/>
      <point x="132" y="456" type="line"/>
      <point x="411" y="456" type="line"/>
      <point x="411" y="94" type="line"/>
      <point x="509" y="94" type="line"/>
      <point x="509" y="456" type="line"/>
      <point x="783" y="456" type="line"/>
      <point x="783" y="537" type="line"/>
      <point x="509" y="537" type="line"/>
      <point x="509" y="977" type="line"/>
      <point x="784" y="977" type="line"/>
      <point x="784" y="1062" type="line"/>
      <point x="504" y="1062" type="line"/>
      <point x="504" y="1444" type="line"/>
    </contour>
  </outline>
</glyph>
<glyph name="bullet" format="1">
  <advance width="825.400"/>
  <unicode hex="2022"/>
  <outline>
    <contour>
      <point x="416" y="423" type="curve" smooth="yes"/>
      <point x="577" y="423"/>
      <point x="731" y="538"/>
      <point x="731" y="746" type="curve" smooth="yes"/>
      <point x="731" y="954"/>
      <point x="581" y="1066"/>
      <point x="421" y="1066" type="curve" smooth="yes"/>
      <point x="260" y="1066"/>
      <point x="108" y="951"/>
      <point x="108" y="741" type="curve" smooth="yes"/>
      <point x="108" y="534"/>
      <point x="256" y="423"/>
    </contour>
  </outline>
</glyph>
<glyph name="guilsinglleft" format="1">
  <advance width="612.600"/>
  <unicode hex="2039"/>
  <outline>
    <contour>
      <point x="400" y="146" type="line"/>
      <point x="520" y="146" type="line"/>
      <point x="230" y="560" type="line"/>
      <point x="526" y="985" type="line"/>
      <point x="405" y="985" type="line"/>
      <point x="102" y="561" type="line"/>
    </contour>
  </outline>
</glyph>
<glyph name="guilsinglright" format="1">
  <advance width="621.400"/>
  <unicode hex="203A"/>
  <outline>
    <contour>
      <point x="122" y="146" type="line"/>
      <point x="243" y="146" type="line"/>
      <point x="546" y="570" type="line"/>
      <point x="247" y="985" type="line"/>
      <point x="127" y="985" type="line"/>
      <point x="417" y="571" type="line"/>
    </contour>
  </outline>
</glyph>
<glyph name="fraction" format="1">
  <advance width="1154.600"/>
  <unicode hex="2044"/>
  <outline>
    <contour>
      <point x="141" y="0" type="line"/>
      <point x="267" y="0" type="line"/>
      <point x="1028" y="1522" type="line"/>
      <point x="910" y="1522" type="line"/>
    </contour>
  </outline>
</glyph>
<glyph name="foursuperior" format="1">
  <advance width="730.200"/>
  <unicode hex="2074"/>
  <outline>
    <contour>
      <point x="443" y="658" type="line"/>
      <point x="519" y="658" type="line"/>
      <point x="519" y="866" type="line"/>
      <point x="618" y="866" type="line"/>
      <point x="611" y="956" type="line"/>
      <point x="521" y="956" type="line"/>
      <point x="521" y="1497" type="line"/>
      <point x="427" y="1497" type="line"/>
      <point x="127" y="951" type="line"/>
      <point x="127" y="866" type="line"/>
      <point x="443" y="866" type="line"/>
    </contour>
    <contour>
      <point x="204" y="956" type="line"/>
      <point x="445" y="1360" type="line"/>
      <point x="443" y="956" type="line"/>
    </contour>
  </outline>
</glyph>
<glyph name="Euro" format="1">
  <advance width="1296.800"/>
  <unicode hex="20AC"/>
  <outline>
    <contour>
      <point x="462" y="1462"/>
      <point x="212" y="1248"/>
      <point x="150" y="873" type="curve"/>
      <point x="200" y="917" type="line"/>
      <point x="38" y="917" type="line"/>
      <point x="30" y="816" type="line"/>
      <point x="196" y="816" type="line"/>
      <point x="149" y="856" type="line"/>
      <point x="146" y="826"/>
      <point x="143" y="757"/>
      <point x="143" y="726" type="curve" smooth="yes"/>
      <point x="143" y="695"/>
      <point x="147" y="621"/>
      <point x="150" y="591" type="curve"/>
      <point x="198" y="633" type="line"/>
      <point x="32" y="633" type="line"/>
      <point x="23" y="529" type="line"/>
      <point x="208" y="529" type="line"/>
      <point x="152" y="570" type="line"/>
      <point x="216" y="191"/>
      <point x="483" y="-19"/>
      <point x="830" y="-19" type="curve" smooth="yes"/>
      <point x="1008" y="-19"/>
      <point x="1130" y="26"/>
      <point x="1203" y="67" type="curve"/>
      <point x="1165" y="181" type="line"/>
      <point x="1081" y="140"/>
      <point x="980" y="107"/>
      <point x="854" y="107" type="curve" smooth="yes"/>
      <point x="557" y="107"/>
      <point x="370" y="271"/>
      <point x="313" y="570" type="curve"/>
      <point x="262" y="529" type="line"/>
      <point x="917" y="529" type="line"/>
      <point x="926" y="633" type="line"/>
      <point x="248" y="633" type="line"/>
      <point x="308" y="591" type="line"/>
      <point x="305" y="619"/>
      <point x="301" y="690"/>
      <point x="301" y="720" type="curve" smooth="yes"/>
      <point x="301" y="752"/>
      <point x="304" y="825"/>
      <point x="308" y="856" type="curve"/>
      <point x="245" y="816" type="line"/>
      <point x="926" y="816" type="line"/>
      <point x="935" y="917" type="line"/>
      <point x="255" y="917" type="line"/>
      <point x="312" y="873" type="line"/>
      <point x="369" y="1172"/>
      <point x="557" y="1337"/>
      <point x="834" y="1337" type="curve" smooth="yes"/>
      <point x="956" y="1337"/>
      <point x="1078" y="1302"/>
      <point x="1165" y="1247" type="curve"/>
      <point x="1222" y="1350" type="line"/>
      <point x="1132" y="1415"/>
      <point x="993" y="1462"/>
      <point x="819" y="1462" type="curve" smooth="yes"/>
    </contour>
  </outline>
</glyph>
<glyph name="trademark" format="1">
  <advance width="1794.600"/>
  <unicode hex="2122"/>
  <outline>
    <contour>
      <point x="1554" y="1456" type="line"/>
      <point x="1255" y="759" type="line"/>
      <point x="968" y="1456" type="line"/>
      <point x="844" y="1456" type="line"/>
      <point x="844" y="576" type="line"/>
      <point x="924" y="576" type="line"/>
      <point x="924" y="1377" type="line"/>
      <point x="1211" y="663" type="line"/>
      <point x="1283" y="663" type="line"/>
      <point x="1588" y="1373" type="line"/>
      <point x="1588" y="576" type="line"/>
      <point x="1672" y="576" type="line"/>
      <point x="1672" y="1456" type="line"/>
    </contour>
    <contour>
      <point x="90" y="1456" type="line"/>
      <point x="89" y="1382" type="line"/>
      <point x="345" y="1382" type="line"/>
      <point x="345" y="576" type="line"/>
      <point x="428" y="576" type="line"/>
      <point x="428" y="1382" type="line"/>
      <point x="693" y="1382" type="line"/>
      <point x="693" y="1456" type="line"/>
    </contour>
  </outline>
</glyph>
<glyph name="estimated" format="1">
  <advance width="1257"/>
  <unicode hex="212E"/>
  <outline>
    <contour>
      <point x="347" y="1102"/>
      <point x="117" y="863"/>
      <point x="117" y="542" type="curve" smooth="yes"/>
      <point x="117" y="221"/>
      <point x="305" y="-20"/>
      <point x="688" y="-20" type="curve" smooth="yes"/>
      <point x="896" y="-20"/>
      <point x="1031" y="70"/>
      <point x="1132" y="189" type="curve"/>
      <point x="1079" y="240" type="line"/>
      <point x="982" y="134"/>
      <point x="869" y="54"/>
      <point x="688" y="54" type="curve" smooth="yes"/>
      <point x="458" y="54"/>
      <point x="336" y="245"/>
      <point x="335" y="522" type="curve"/>
      <point x="1140" y="522" type="line"/>
      <point x="1140" y="871"/>
      <point x="991" y="1102"/>
      <point x="671" y="1102" type="curve" smooth="yes"/>
    </contour>
    <contour>
      <point x="887" y="1042"/>
      <point x="1027" y="838"/>
      <point x="1027" y="603" type="curve"/>
      <point x="337" y="603" type="line"/>
      <point x="352" y="865"/>
      <point x="504" y="1042"/>
      <point x="676" y="1042" type="curve" smooth="yes"/>
    </contour>
  </outline>
</glyph>
<glyph name="summation" format="1">
  <advance width="1280.200"/>
  <unicode hex="2211"/>
  <outline>
    <contour>
      <point x="126" y="1507" type="line"/>
      <point x="126" y="1420" type="line"/>
      <point x="717" y="585" type="line"/>
      <point x="104" y="-270" type="line"/>
      <point x="104" y="-355" type="line"/>
      <point x="1179" y="-355" type="line"/>
      <point x="1179" y="-214" type="line"/>
      <point x="264" y="-214" type="line"/>
      <point x="898" y="593" type="line"/>
      <point x="288" y="1376" type="line"/>
      <point x="1142" y="1376" type="line"/>
      <point x="1142" y="1507" type="line"/>
    </contour>
  </outline>
</glyph>
<glyph name="minus" format="1">
  <advance width="1135.400"/>
  <unicode hex="2212"/>
  <outline>
    <contour>
      <point x="82" y="666" type="line"/>
      <point x="82" y="540" type="line"/>
      <point x="1033" y="540" type="line"/>
      <point x="1033" y="666" type="line"/>
    </contour>
  </outline>
</glyph>
<glyph name="radical" format="1">
  <advance width="1241"/>
  <unicode hex="221A"/>
  <outline>
    <contour>
      <point x="1051" y="1672" type="line"/>
      <point x="918" y="1128"/>
      <point x="787" y="587"/>
      <point x="655" y="43" type="curve"/>
      <point x="597" y="224" type="line"/>
      <point x="363" y="866" type="line"/>
      <point x="109" y="811" type="line"/>
      <point x="124" y="693" type="line"/>
      <point x="273" y="723" type="line"/>
      <point x="597" y="-162" type="line"/>
      <point x="732" y="-162" type="line"/>
      <point x="1161" y="1672" type="line"/>
    </contour>
  </outline>
</glyph>
<glyph name="approxequal" format="1">
  <advance width="1254.200"/>
  <unicode hex="2248"/>
  <outline>
    <contour>
      <point x="1022" y="920" type="line"/>
      <point x="1001" y="803"/>
      <point x="950" y="733"/>
      <point x="859" y="733" type="curve" smooth="yes"/>
      <point x="803" y="733"/>
      <point x="748" y="763"/>
      <point x="655" y="821" type="curve" smooth="yes"/>
      <point x="560" y="882"/>
      <point x="489" y="920"/>
      <point x="403" y="920" type="curve" smooth="yes"/>
      <point x="249" y="920"/>
      <point x="146" y="814"/>
      <point x="122" y="633" type="curve"/>
      <point x="219" y="639" type="line"/>
      <point x="245" y="752"/>
      <point x="298" y="821"/>
      <point x="402" y="821" type="curve" smooth="yes"/>
      <point x="457" y="821"/>
      <point x="519" y="790"/>
      <point x="587" y="745" type="curve" smooth="yes"/>
      <point x="700" y="671"/>
      <point x="782" y="637"/>
      <point x="862" y="637" type="curve" smooth="yes"/>
      <point x="1031" y="637"/>
      <point x="1094" y="745"/>
      <point x="1119" y="924" type="curve"/>
    </contour>
    <contour>
      <point x="1026" y="690" type="line"/>
      <point x="1005" y="574"/>
      <point x="953" y="502"/>
      <point x="862" y="502" type="curve" smooth="yes"/>
      <point x="800" y="502"/>
      <point x="730" y="552"/>
      <point x="654" y="597" type="curve" smooth="yes"/>
      <point x="576" y="643"/>
      <point x="494" y="690"/>
      <point x="402" y="690" type="curve" smooth="yes"/>
      <point x="247" y="690"/>
      <point x="150" y="585"/>
      <point x="125" y="401" type="curve"/>
      <point x="218" y="402" type="line"/>
      <point x="248" y="517"/>
      <point x="303" y="588"/>
      <point x="405" y="588" type="curve" smooth="yes"/>
      <point x="460" y="588"/>
      <point x="521" y="554"/>
      <point x="589" y="509" type="curve" smooth="yes"/>
      <point x="704" y="437"/>
      <point x="788" y="404"/>
      <point x="863" y="404" type="curve" smooth="yes"/>
      <point x="1038" y="404"/>
      <point x="1097" y="512"/>
      <point x="1121" y="691" type="curve"/>
    </contour>
  </outline>
</glyph>
<glyph name="notequal" format="1">
  <advance width="1161.200"/>
  <unicode hex="2260"/>
  <outline>
    <contour>
      <point x="266" y="65" type="line"/>
      <point x="349" y="49" type="line"/>
      <point x="494" y="352" type="line"/>
      <point x="1038" y="352" type="line"/>
      <point x="1034" y="458" type="line"/>
      <point x="541" y="458" type="line"/>
      <point x="711" y="782" type="line"/>
      <point x="1038" y="782" type="line"/>
      <point x="1031" y="888" type="line"/>
      <point x="757" y="888" type="line"/>
      <point x="872" y="1170" type="line"/>
      <point x="787" y="1182" type="line"/>
      <point x="647" y="888" type="line"/>
      <point x="120" y="888" type="line"/>
      <point x="127" y="782" type="line"/>
      <point x="600" y="782" type="line"/>
      <point x="435" y="458" type="line"/>
      <point x="120" y="458" type="line"/>
      <point x="127" y="352" type="line"/>
      <point x="382" y="352" type="line"/>
    </contour>
  </outline>
</glyph>
<glyph name="lessequal" format="1">
  <advance width="1194"/>
  <unicode hex="2264"/>
  <outline>
    <contour>
      <point x="163" y="788" type="line"/>
      <point x="163" y="713" type="line"/>
      <point x="1038" y="247" type="line"/>
      <point x="1038" y="372" type="line"/>
      <point x="329" y="752" type="line"/>
      <point x="1038" y="1153" type="line"/>
      <point x="1038" y="1279" type="line"/>
    </contour>
    <contour>
      <point x="123" y="111" type="line"/>
      <point x="123" y="0" type="line"/>
      <point x="1070" y="0" type="line"/>
      <point x="1070" y="111" type="line"/>
    </contour>
  </outline>
</glyph>
<glyph name="greaterequal" format="1">
  <advance width="1190.800"/>
  <unicode hex="2265"/>
  <outline>
    <contour>
      <point x="165" y="1157" type="line"/>
      <point x="940" y="744" type="line"/>
      <point x="161" y="357" type="line"/>
      <point x="161" y="234" type="line"/>
      <point x="1045" y="708" type="line"/>
      <point x="1045" y="780" type="line"/>
      <point x="165" y="1282" type="line"/>
    </contour>
    <contour>
      <point x="127" y="125" type="line"/>
      <point x="127" y="9" type="line"/>
      <point x="1067" y="9" type="line"/>
      <point x="1067" y="126" type="line"/>
    </contour>
  </outline>
</glyph>
<glyph name="lozenge" format="1">
  <advance width="1153"/>
  <unicode hex="25CA"/>
  <outline>
    <contour>
      <point x="528" y="1559" type="line"/>
      <point x="116" y="753" type="line"/>
      <point x="522" y="-48" type="line"/>
      <point x="617" y="-48" type="line"/>
      <point x="1031" y="756" type="line"/>
      <point x="626" y="1559" type="line"/>
    </contour>
    <contour>
      <point x="698" y="1202"/>
      <point x="818" y="977"/>
      <point x="938" y="754" type="curve"/>
      <point x="814" y="528"/>
      <point x="690" y="300"/>
      <point x="568" y="77" type="curve"/>
      <point x="445" y="297"/>
      <point x="331" y="530"/>
      <point x="210" y="755" type="curve"/>
      <point x="334" y="980"/>
      <point x="456" y="1206"/>
      <point x="580" y="1428" type="curve"/>
    </contour>
  </outline>
</glyph>
<glyph name=".notdef" format="1">
  <advance width="941.600"/>
  <outline>
    <contour>
      <point x="190" y="272" type="line"/>
      <point x="190" y="784" type="line"/>
      <point x="763" y="784" type="line"/>
      <point x="763" y="272" type="line"/>
    </contour>
    <contour>
      <point x="95" y="177" type="line"/>
      <point x="858" y="177" type="line"/>
      <point x="858" y="880" type="line"/>
      <point x="95" y="880" type="line"/>
    </contour>
  </outline>
</glyph>
<glyph name="caron.alt" format="1">
  <advance width="600"/>
  <outline>
    <contour>
      <point x="142" y="1114" type="line"/>
      <point x="237" y="1114" type="line"/>
      <point x="399" y="1553" type="line"/>
      <point x="272" y="1553" type="line"/>
    </contour>
    <contour>
      <point x="5" y="1057" type="move" name="_caron.alt"/>
    </contour>
  </outline>
</glyph>
<glyph name="middot" format="1">
  <advance width="398"/>
  <outline>
    <component base="period" xOffset="-57" yOffset="558"/>
    <contour>
      <point x="195" y="644" type="move" name="_mid"/>
    </contour>
  </outline>
</glyph>
<glyph name="slashbar" format="1">
  <advance width="600"/>
  <outline>
    <contour>
      <point x="126" y="276" type="line"/>
      <point x="592" y="576" type="line"/>
      <point x="592" y="712" type="line"/>
      <point x="126" y="412" type="line"/>
    </contour>
    <contour>
      <point x="621" y="520" type="move" name="_mid"/>
    </contour>
  </outline>
</glyph>
